<svg width="40" height="40" viewBox="0 0 40 40" fill="none" xmlns="http://www.w3.org/2000/svg">
<g id="Group">
<g id="Group_2">
<path id="Vector" d="M20.0003 11.0068C22.9315 11.0068 23.2705 11.0168 24.427 11.0666C25.4938 11.1165 26.0721 11.2959 26.4609 11.4455C26.9694 11.6449 27.3383 11.8842 27.7172 12.263C28.106 12.6519 28.3353 13.0108 28.5347 13.5193C28.6843 13.9081 28.8637 14.4864 28.9136 15.5532C28.9634 16.7097 28.9734 17.0586 28.9734 19.9799C28.9734 22.9011 28.9634 23.2501 28.9136 24.4066C28.8637 25.4734 28.6843 26.0517 28.5347 26.4405C28.3353 26.949 28.096 27.3179 27.7172 27.6967C27.3383 28.0756 26.9694 28.3149 26.4609 28.5143C26.0721 28.6638 25.4938 28.8433 24.427 28.8931C23.2705 28.943 22.9215 28.953 20.0003 28.953C17.0791 28.953 16.7301 28.943 15.5736 28.8931C14.5068 28.8433 13.9285 28.6638 13.5397 28.5143C13.0312 28.3149 12.6623 28.0756 12.2835 27.6967C11.9046 27.3179 11.6653 26.949 11.4659 26.4405C11.3164 26.0517 11.1369 25.4734 11.087 24.4066C11.0372 23.2501 11.0272 22.9011 11.0272 19.9799C11.0272 17.0586 11.0372 16.7097 11.087 15.5532C11.1369 14.4864 11.3164 13.9081 11.4659 13.5193C11.6653 13.0108 11.9046 12.6419 12.2835 12.263C12.6623 11.8842 13.0312 11.6449 13.5397 11.4455C13.9285 11.2959 14.5068 11.1165 15.5736 11.0666C16.7301 11.0168 17.0791 11.0068 20.0003 11.0068ZM20.0003 9.03271C17.0192 9.03271 16.6504 9.04268 15.4838 9.10251C14.3173 9.15236 13.5197 9.34179 12.8218 9.61098C12.104 9.89014 11.4858 10.269 10.8777 10.8772C10.2695 11.4854 9.89063 12.1035 9.61147 12.8213C9.34228 13.5193 9.15284 14.3169 9.10299 15.4834C9.05314 16.6499 9.0332 17.0287 9.0332 19.9998C9.0332 22.9709 9.04317 23.3498 9.10299 24.5163C9.15284 25.6828 9.34228 26.4804 9.61147 27.1783C9.89063 27.8961 10.2695 28.5143 10.8777 29.1224C11.4858 29.7306 12.094 30.1095 12.8218 30.3886C13.5197 30.6578 14.3173 30.8473 15.4838 30.8971C16.6504 30.947 17.0292 30.9669 20.0003 30.9669C22.9714 30.9669 23.3503 30.9569 24.5168 30.8971C25.6833 30.8473 26.4809 30.6578 27.1788 30.3886C27.8966 30.1095 28.5148 29.7306 29.1229 29.1224C29.7311 28.5143 30.11 27.8961 30.3891 27.1783C30.6583 26.4804 30.8478 25.6828 30.8976 24.5163C30.9475 23.3498 30.9674 22.9709 30.9674 19.9998C30.9674 17.0287 30.9574 16.6499 30.8976 15.4834C30.8478 14.3169 30.6583 13.5193 30.3891 12.8213C30.11 12.1035 29.7311 11.4854 29.1229 10.8772C28.5148 10.269 27.9066 9.89014 27.1788 9.61098C26.4809 9.34179 25.6833 9.15236 24.5168 9.10251C23.3503 9.05265 22.9714 9.03271 20.0003 9.03271Z" fill="#001C00"/>
<path id="Vector_2" d="M20.0003 14.3667C16.8896 14.3667 14.3672 16.8891 14.3672 19.9998C14.3672 23.1105 16.8896 25.6329 20.0003 25.6329C23.111 25.6329 25.6334 23.1105 25.6334 19.9998C25.6334 16.8891 23.111 14.3667 20.0003 14.3667ZM20.0003 23.6588C17.9863 23.6588 16.3413 22.0237 16.3413 19.9998C16.3413 17.9759 17.9764 16.3408 20.0003 16.3408C22.0242 16.3408 23.6593 17.9759 23.6593 19.9998C23.6593 22.0237 22.0242 23.6588 20.0003 23.6588Z" fill="#001C00"/>
<path id="Vector_3" d="M27.1692 14.1476C27.1692 14.8754 26.581 15.4636 25.8532 15.4636C25.1253 15.4636 24.5371 14.8754 24.5371 14.1476C24.5371 13.4198 25.1253 12.8315 25.8532 12.8315C26.581 12.8315 27.1692 13.4198 27.1692 14.1476Z" fill="#001C00"/>
</g>
</g>
</svg>
