<svg width="40" height="40" viewBox="0 0 40 40" fill="none" xmlns="http://www.w3.org/2000/svg">
<g id="Group">
<g id="Group_2">
<g id="Group_3">
<path id="Vector" d="M15.0653 15.5435H10.9277V28.9133H15.0653V15.5435Z" fill="#001C00"/>
<path id="Vector_2" d="M12.9817 13.7887C14.3377 13.7887 15.4344 12.682 15.4344 11.3161C15.4344 9.95023 14.3377 8.85352 12.9817 8.85352C11.6258 8.85352 10.5391 9.9602 10.5391 11.3161C10.5391 12.6721 11.6358 13.7887 12.9817 13.7887Z" fill="#001C00"/>
</g>
<path id="Vector_3" d="M21.6849 21.8945C21.6849 20.0101 22.5523 18.8935 24.2073 18.8935C25.7327 18.8935 26.4606 19.9703 26.4606 21.8945V28.9134H30.5782V20.4488C30.5782 16.8696 28.5443 15.1348 25.7128 15.1348C22.8813 15.1348 21.6849 17.3481 21.6849 17.3481V15.5435H17.7168V28.9134H21.6849V21.8945Z" fill="#001C00"/>
</g>
</g>
</svg>
