<svg width="48" height="34" viewBox="0 0 48 34" fill="none" xmlns="http://www.w3.org/2000/svg">
<g id="Group">
<path id="Vector" d="M1.12305 5.5962V0.733887H2.129V5.5962H1.12305Z" fill="#001C00"/>
<path id="Vector_2" d="M2.94922 5.59603V1.97626H3.90336V2.26101C4.04152 2.14452 4.19695 2.05823 4.36533 1.99783C4.53371 1.93743 4.71936 1.90723 4.91796 1.90723C5.33674 1.90723 5.67782 2.04097 5.94549 2.30846C6.21317 2.57596 6.34702 2.92111 6.34702 3.34392V5.59603H5.39287V3.48629C5.39287 3.25763 5.32379 3.07643 5.18995 2.93837C5.05179 2.80031 4.87046 2.73128 4.64596 2.73128C4.48621 2.73128 4.34805 2.76148 4.21853 2.82619C4.09333 2.88659 3.98539 2.9772 3.90336 3.09368V5.60034H2.94922V5.59603Z" fill="#001C00"/>
<path id="Vector_3" d="M7.42619 4.57318V2.77407H6.68359V1.97591H7.42619V1.05263L8.38033 0.836914V1.97591H9.40788V2.77407H8.38033V4.37903C8.38033 4.5516 8.41919 4.67241 8.49259 4.74144C8.56599 4.81047 8.6955 4.84498 8.88115 4.84498C8.9675 4.84498 9.05385 4.84067 9.13156 4.82772C9.20928 4.81478 9.29563 4.79321 9.39061 4.76301V5.5396C9.28699 5.57411 9.1661 5.6 9.02363 5.62157C8.88115 5.64314 8.75595 5.65177 8.65665 5.65177C8.25513 5.65177 7.94859 5.56117 7.74136 5.37565C7.53412 5.19013 7.4305 4.92696 7.4305 4.57318H7.42619Z" fill="#001C00"/>
<path id="Vector_4" d="M13.0909 5.14757C12.8707 5.32878 12.6418 5.45821 12.4044 5.5445C12.1669 5.63079 11.9079 5.66961 11.6229 5.66961C11.338 5.66961 11.0919 5.62216 10.8544 5.52293C10.617 5.4237 10.4097 5.29426 10.237 5.126C10.0643 4.95774 9.92619 4.76359 9.82689 4.53062C9.72759 4.30195 9.67578 4.05603 9.67578 3.79286C9.67578 3.52968 9.72327 3.28807 9.81826 3.05941C9.91324 2.83075 10.0428 2.63229 10.2111 2.46402C10.3795 2.29576 10.5738 2.16202 10.8069 2.0671C11.0358 1.96787 11.2819 1.92041 11.5409 1.92041C11.7999 1.92041 12.0331 1.97218 12.2533 2.07141C12.4735 2.17065 12.6634 2.30439 12.8232 2.47697C12.9829 2.64954 13.1081 2.85232 13.1988 3.08961C13.2895 3.3269 13.3326 3.58576 13.3326 3.86189V4.11212H10.6342C10.699 4.34078 10.8242 4.52199 11.0099 4.66005C11.1955 4.79811 11.4114 4.86714 11.6618 4.86714C11.8172 4.86714 11.9683 4.84125 12.1065 4.78948C12.2446 4.73771 12.3655 4.66868 12.4605 4.57376L13.0865 5.14326L13.0909 5.14757ZM11.5193 2.70132C11.3034 2.70132 11.1135 2.76603 10.9581 2.89978C10.7983 3.03352 10.6904 3.21041 10.6299 3.43045H12.4001C12.3396 3.21904 12.2317 3.04215 12.0719 2.90409C11.9122 2.76603 11.7266 2.70132 11.5193 2.70132Z" fill="#001C00"/>
<path id="Vector_5" d="M13.9145 5.59579V1.97602H14.8686V2.37294C14.9852 2.21762 15.1233 2.09682 15.2874 2.01485C15.4515 1.93287 15.6328 1.89404 15.8314 1.89404C15.9221 1.89836 15.9998 1.90699 16.0645 1.91993C16.125 1.93287 16.1811 1.95013 16.2286 1.98033V2.81301C16.1595 2.77849 16.0818 2.75692 15.9998 2.73966C15.9177 2.72241 15.8314 2.71378 15.7407 2.71378C15.5551 2.71378 15.3867 2.76124 15.2313 2.85184C15.0759 2.94244 14.955 3.0805 14.8643 3.25308V5.59148H13.9102L13.9145 5.59579Z" fill="#001C00"/>
<path id="Vector_6" d="M16.748 5.59603V1.97626H17.7022V2.26101C17.8404 2.14452 17.9958 2.05823 18.1642 1.99783C18.3325 1.93743 18.5182 1.90723 18.7168 1.90723C19.1356 1.90723 19.4767 2.04097 19.7443 2.30846C20.012 2.57596 20.1458 2.92111 20.1458 3.34392V5.59603H19.1917V3.48629C19.1917 3.25763 19.1226 3.07643 18.9888 2.93837C18.8506 2.80031 18.6693 2.73128 18.4448 2.73128C18.285 2.73128 18.1469 2.76148 18.0174 2.82619C17.8922 2.88659 17.7842 2.9772 17.7022 3.09368V5.60034H16.748V5.59603Z" fill="#001C00"/>
<path id="Vector_7" d="M22.0145 5.66059C21.6259 5.66059 21.3064 5.55704 21.0603 5.34995C20.8142 5.14286 20.6934 4.87537 20.6934 4.54747C20.6934 4.21958 20.8272 3.93483 21.0906 3.74068C21.3539 3.54653 21.7166 3.4473 22.1829 3.4473C22.3297 3.4473 22.4808 3.46025 22.6276 3.48182C22.7743 3.50339 22.9211 3.53791 23.0636 3.58536V3.3265C23.0636 3.11941 22.9989 2.95978 22.8693 2.85623C22.7398 2.74837 22.5498 2.6966 22.2994 2.6966C22.1483 2.6966 21.98 2.72249 21.8029 2.76994C21.6259 2.8174 21.423 2.89506 21.1942 2.99429L20.8488 2.29105C21.1294 2.16162 21.4057 2.06238 21.6734 1.99767C21.9411 1.93295 22.2045 1.89844 22.4635 1.89844C22.9514 1.89844 23.327 2.01493 23.599 2.2479C23.871 2.48088 24.0048 2.81309 24.0048 3.2359V5.58293H23.0679V5.33269C22.9168 5.44055 22.7528 5.51821 22.5844 5.56998C22.416 5.62176 22.226 5.64764 22.0188 5.64764L22.0145 5.66059ZM21.6043 4.5259C21.6043 4.66396 21.6648 4.77613 21.7857 4.85379C21.9066 4.93577 22.0663 4.9746 22.2649 4.9746C22.4246 4.9746 22.5671 4.95302 22.701 4.9142C22.8348 4.87537 22.9557 4.81928 23.0636 4.74593V4.20232C22.947 4.15486 22.8262 4.12466 22.701 4.10309C22.5714 4.08152 22.4419 4.07289 22.2994 4.07289C22.0836 4.07289 21.9109 4.11172 21.79 4.19369C21.6691 4.27567 21.6043 4.38353 21.6043 4.52159V4.5259Z" fill="#001C00"/>
<path id="Vector_8" d="M25.0785 4.57318V2.77407H24.3359V1.97591H25.0785V1.05263L26.0327 0.836914V1.97591H27.0602V2.77407H26.0327V4.37903C26.0327 4.5516 26.0715 4.67241 26.1449 4.74144C26.2183 4.81047 26.3478 4.84498 26.5335 4.84498C26.6198 4.84498 26.7062 4.84067 26.7839 4.82772C26.8616 4.81478 26.948 4.79321 27.043 4.76301V5.5396C26.9393 5.57411 26.8184 5.6 26.676 5.62157C26.5335 5.64314 26.4083 5.65177 26.309 5.65177C25.9075 5.65177 25.6009 5.56117 25.3937 5.37565C25.1865 5.19013 25.0828 4.92696 25.0828 4.57318H25.0785Z" fill="#001C00"/>
<path id="Vector_9" d="M28.003 1.54914C27.8562 1.54914 27.7267 1.49737 27.6187 1.38951C27.5108 1.28165 27.459 1.15653 27.459 1.00553C27.459 0.854525 27.5108 0.729407 27.6187 0.621548C27.7267 0.513688 27.8519 0.461914 28.003 0.461914C28.1541 0.461914 28.2793 0.513688 28.3872 0.621548C28.4952 0.729407 28.547 0.854525 28.547 1.00553C28.547 1.15653 28.4952 1.28165 28.3872 1.38951C28.2793 1.49737 28.1541 1.54914 28.003 1.54914ZM28.4822 1.97627V5.59604H27.5281V1.97627H28.4822Z" fill="#001C00"/>
<path id="Vector_10" d="M29.0605 3.7927C29.0605 3.52952 29.108 3.2836 29.2117 3.05494C29.311 2.82627 29.4491 2.62781 29.6218 2.45955C29.7945 2.29129 30.0017 2.15754 30.2349 2.05831C30.4723 1.95908 30.7227 1.91162 30.9904 1.91162C31.2581 1.91162 31.5128 1.95908 31.746 2.05831C31.9834 2.15754 32.1864 2.28697 32.359 2.45955C32.5317 2.63212 32.6699 2.82627 32.7692 3.05494C32.8685 3.2836 32.9203 3.52952 32.9203 3.7927C32.9203 4.05587 32.8685 4.30179 32.7692 4.53046C32.6699 4.75912 32.5317 4.95758 32.359 5.12584C32.1864 5.2941 31.9791 5.42354 31.746 5.52277C31.5085 5.61768 31.2581 5.66945 30.9904 5.66945C30.7227 5.66945 30.468 5.622 30.2349 5.52277C29.9974 5.42354 29.7945 5.2941 29.6218 5.12584C29.4491 4.95758 29.311 4.76343 29.2117 4.53046C29.1124 4.30179 29.0605 4.05587 29.0605 3.7927ZM30.9947 4.84109C31.2711 4.84109 31.5085 4.73755 31.7028 4.53477C31.8971 4.33199 31.9964 4.08176 31.9964 3.7927C31.9964 3.50363 31.8971 3.24477 31.7028 3.04199C31.5085 2.83922 31.2711 2.73567 30.9947 2.73567C30.7184 2.73567 30.481 2.83922 30.2867 3.04199C30.0924 3.24477 29.9931 3.495 29.9931 3.7927C29.9931 4.09039 30.0924 4.33199 30.2867 4.53477C30.481 4.73755 30.7184 4.84109 30.9947 4.84109Z" fill="#001C00"/>
<path id="Vector_11" d="M33.5078 5.59603V1.97626H34.462V2.26101C34.6001 2.14452 34.7555 2.05823 34.9239 1.99783C35.0923 1.93743 35.2779 1.90723 35.4765 1.90723C35.8953 1.90723 36.2364 2.04097 36.5041 2.30846C36.7718 2.57596 36.9056 2.92111 36.9056 3.34392V5.59603H35.9515V3.48629C35.9515 3.25763 35.8824 3.07643 35.7485 2.93837C35.6104 2.80031 35.4291 2.73128 35.2046 2.73128C35.0448 2.73128 34.9067 2.76148 34.7771 2.82619C34.6519 2.88659 34.544 2.9772 34.462 3.09368V5.60034H33.5078V5.59603Z" fill="#001C00"/>
<path id="Vector_12" d="M38.7743 5.66059C38.3857 5.66059 38.0662 5.55704 37.8201 5.34995C37.574 5.14286 37.4531 4.87537 37.4531 4.54747C37.4531 4.21958 37.587 3.93483 37.8503 3.74068C38.1137 3.54653 38.4763 3.4473 38.9426 3.4473C39.0894 3.4473 39.2405 3.46025 39.3873 3.48182C39.5341 3.50339 39.6809 3.53791 39.8234 3.58536V3.3265C39.8234 3.11941 39.7586 2.95978 39.6291 2.85623C39.4996 2.74837 39.3096 2.6966 39.0592 2.6966C38.9081 2.6966 38.7397 2.72249 38.5627 2.76994C38.3857 2.8174 38.1828 2.89506 37.9539 2.99429L37.6086 2.29105C37.8892 2.16162 38.1655 2.06238 38.4332 1.99767C38.7009 1.93295 38.9642 1.89844 39.2233 1.89844C39.7111 1.89844 40.0867 2.01493 40.3587 2.2479C40.6307 2.48088 40.7646 2.81309 40.7646 3.2359V5.58293H39.8277V5.33269C39.6766 5.44055 39.5125 5.51821 39.3441 5.56998C39.1758 5.62176 38.9858 5.64764 38.7786 5.64764L38.7743 5.66059ZM38.3641 4.5259C38.3641 4.66396 38.4245 4.77613 38.5454 4.85379C38.6663 4.93577 38.8261 4.9746 39.0247 4.9746C39.1844 4.9746 39.3269 4.95302 39.4607 4.9142C39.5946 4.87537 39.7154 4.81928 39.8234 4.74593V4.20232C39.7068 4.15486 39.5859 4.12466 39.4607 4.10309C39.3312 4.08152 39.2017 4.07289 39.0592 4.07289C38.8433 4.07289 38.6706 4.11172 38.5497 4.19369C38.4289 4.27567 38.3641 4.38353 38.3641 4.52159V4.5259Z" fill="#001C00"/>
<path id="Vector_13" d="M42.4405 0.526855V5.59626H41.4863V0.733946L42.4405 0.526855Z" fill="#001C00"/>
<path id="Vector_14" d="M0.65625 12.4473L2.65953 7.58496H3.82955L5.8026 12.4473H4.71029L4.21811 11.1702H2.21052L1.7097 12.4473H0.660568H0.65625ZM2.51705 10.3634H3.90726L3.22079 8.57296L2.51705 10.3634Z" fill="#001C00"/>
<path id="Vector_15" d="M7.09673 7.37793V12.4473H6.14258V7.58502L7.09673 7.37793Z" fill="#001C00"/>
<path id="Vector_16" d="M8.79399 7.37793V12.4473H7.83984V7.58502L8.79399 7.37793Z" fill="#001C00"/>
<path id="Vector_17" d="M10.0127 8.40021C9.86596 8.40021 9.73643 8.34844 9.6285 8.24058C9.52056 8.13272 9.46875 8.00761 9.46875 7.8566C9.46875 7.7056 9.52056 7.58048 9.6285 7.47262C9.73643 7.36476 9.86164 7.31299 10.0127 7.31299C10.1639 7.31299 10.2891 7.36476 10.397 7.47262C10.5049 7.58048 10.5567 7.7056 10.5567 7.8566C10.5567 8.00761 10.5049 8.13272 10.397 8.24058C10.2891 8.34844 10.1639 8.40021 10.0127 8.40021ZM10.492 8.82734V12.4471H9.53783V8.82734H10.492Z" fill="#001C00"/>
<path id="Vector_18" d="M12.3817 12.5117C11.9931 12.5117 11.6736 12.4081 11.4275 12.201C11.1814 11.9939 11.0605 11.7264 11.0605 11.3985C11.0605 11.0707 11.1944 10.7859 11.4577 10.5918C11.7211 10.3976 12.0838 10.2984 12.5501 10.2984C12.6968 10.2984 12.848 10.3113 12.9947 10.3329C13.1415 10.3545 13.2883 10.389 13.4308 10.4364V10.1776C13.4308 9.97048 13.366 9.81085 13.2365 9.70731C13.107 9.59945 12.917 9.54767 12.6666 9.54767C12.5155 9.54767 12.3471 9.57356 12.1701 9.62102C11.9931 9.66848 11.7902 9.74613 11.5614 9.84537L11.216 9.14212C11.4966 9.01269 11.7729 8.91346 12.0406 8.84874C12.3083 8.78403 12.5716 8.74951 12.8307 8.74951C13.3186 8.74951 13.6942 8.866 13.9662 9.09898C14.2382 9.33195 14.372 9.66416 14.372 10.087V12.434H13.4351V12.1838C13.284 12.2916 13.12 12.3693 12.9516 12.4211C12.7832 12.4728 12.5932 12.4987 12.386 12.4987L12.3817 12.5117ZM11.9715 11.377C11.9715 11.515 12.032 11.6272 12.1529 11.7049C12.2737 11.7868 12.4335 11.8257 12.6321 11.8257C12.7918 11.8257 12.9343 11.8041 13.0681 11.7653C13.202 11.7264 13.3229 11.6704 13.4308 11.597V11.0534C13.3142 11.0059 13.1933 10.9757 13.0681 10.9542C12.9386 10.9326 12.8091 10.924 12.6666 10.924C12.4508 10.924 12.2781 10.9628 12.1572 11.0448C12.0363 11.1267 11.9715 11.2346 11.9715 11.3727V11.377Z" fill="#001C00"/>
<path id="Vector_19" d="M15.0898 12.4471V8.82733H16.044V9.11208C16.1821 8.99559 16.3376 8.9093 16.506 8.8489C16.6743 8.7885 16.86 8.7583 17.0586 8.7583C17.4774 8.7583 17.8184 8.89205 18.0861 9.15954C18.3538 9.42703 18.4876 9.77218 18.4876 10.195V12.4471H17.5335V10.3374C17.5335 10.1087 17.4644 9.9275 17.3306 9.78944C17.1924 9.65138 17.0111 9.58235 16.7866 9.58235C16.6268 9.58235 16.4887 9.61255 16.3592 9.67726C16.234 9.73767 16.126 9.82827 16.044 9.94476V12.4514H15.0898V12.4471Z" fill="#001C00"/>
<path id="Vector_20" d="M20.9878 11.6834C21.1518 11.6834 21.3029 11.6489 21.4411 11.5841C21.5792 11.5194 21.7174 11.4159 21.8469 11.2778L22.4168 11.8689C22.2312 12.0717 22.011 12.2313 21.7519 12.3435C21.4929 12.4557 21.2252 12.5117 20.9446 12.5117C20.6639 12.5117 20.4308 12.4643 20.1977 12.3651C19.9645 12.2658 19.7616 12.1364 19.5932 11.9681C19.4248 11.7999 19.291 11.6057 19.1917 11.3727C19.0924 11.1441 19.0449 10.8982 19.0449 10.635C19.0449 10.3718 19.0924 10.1259 19.1917 9.89722C19.2867 9.66856 19.4205 9.4701 19.5932 9.30183C19.7616 9.13357 19.9645 8.99983 20.1977 8.9006C20.4308 8.80136 20.6812 8.75391 20.9446 8.75391C21.2338 8.75391 21.5058 8.80999 21.7735 8.92217C22.0369 9.03434 22.2614 9.19397 22.447 9.39675L21.8642 10.0137C21.7347 9.87133 21.5965 9.76347 21.4454 9.68581C21.2986 9.61247 21.1389 9.57364 20.9662 9.57364C20.6942 9.57364 20.461 9.67719 20.2754 9.87996C20.0897 10.0827 19.9948 10.333 19.9948 10.6307C19.9948 10.9284 20.0897 11.1743 20.284 11.3727C20.4783 11.5712 20.7114 11.6704 20.9878 11.6704V11.6834Z" fill="#001C00"/>
<path id="Vector_21" d="M26.0166 11.9943C25.7964 12.1755 25.5676 12.3049 25.3302 12.3912C25.0927 12.4775 24.8337 12.5163 24.5487 12.5163C24.2638 12.5163 24.0177 12.4688 23.7802 12.3696C23.5428 12.2704 23.3355 12.1409 23.1628 11.9727C22.9901 11.8044 22.852 11.6103 22.7527 11.3773C22.6534 11.1486 22.6016 10.9027 22.6016 10.6395C22.6016 10.3764 22.6491 10.1348 22.744 9.90609C22.839 9.67743 22.9685 9.47897 23.1369 9.3107C23.3053 9.14244 23.4996 9.0087 23.7327 8.91378C23.9616 8.81455 24.2076 8.76709 24.4667 8.76709C24.7257 8.76709 24.9589 8.81886 25.1791 8.91809C25.3992 9.01733 25.5892 9.15107 25.749 9.32365C25.9087 9.49622 26.0339 9.699 26.1246 9.93629C26.2152 10.1736 26.2584 10.4324 26.2584 10.7086V10.9588H23.56C23.6248 11.1875 23.75 11.3687 23.9356 11.5067C24.1213 11.6448 24.3372 11.7138 24.5876 11.7138C24.743 11.7138 24.8941 11.6879 25.0323 11.6362C25.1704 11.5844 25.2913 11.5154 25.3863 11.4204L26.0123 11.9899L26.0166 11.9943ZM24.4451 9.55231C24.2292 9.55231 24.0393 9.61703 23.8838 9.75077C23.7241 9.88452 23.6162 10.0614 23.5557 10.2814H25.3258C25.2654 10.07 25.1575 9.89315 24.9977 9.75509C24.838 9.61703 24.6523 9.55231 24.4451 9.55231Z" fill="#001C00"/>
<path id="Vector_22" d="M27.9883 8.82761H28.7956V8.48246C28.7956 8.08122 28.9122 7.77058 29.1497 7.55055C29.3871 7.33483 29.7282 7.22266 30.1729 7.22266C30.2679 7.22266 30.3715 7.22697 30.4708 7.23991C30.5744 7.25286 30.6608 7.2658 30.7342 7.28306V8.08122C30.6478 8.06396 30.5701 8.0467 30.501 8.03808C30.4319 8.02945 30.3629 8.02513 30.2895 8.02513C30.1081 8.02513 29.9743 8.06396 29.8836 8.14162C29.793 8.21928 29.7498 8.34008 29.7498 8.4954V8.82329H30.7385V9.62146H29.7498V12.4431H28.7956V9.62146H27.9883V8.82329V8.82761Z" fill="#001C00"/>
<path id="Vector_23" d="M30.9648 10.6438C30.9648 10.3806 31.0123 10.1347 31.1159 9.90601C31.2152 9.67735 31.3534 9.47888 31.5261 9.31062C31.6988 9.14236 31.906 9.00862 32.1392 8.90938C32.3766 8.81015 32.627 8.7627 32.8947 8.7627C33.1624 8.7627 33.4171 8.81015 33.6503 8.90938C33.8877 9.00862 34.0906 9.13805 34.2633 9.31062C34.436 9.4832 34.5742 9.67735 34.6735 9.90601C34.7728 10.1347 34.8246 10.3806 34.8246 10.6438C34.8246 10.9069 34.7728 11.1529 34.6735 11.3815C34.5742 11.6102 34.436 11.8087 34.2633 11.9769C34.0906 12.1452 33.8834 12.2746 33.6503 12.3738C33.4128 12.4688 33.1624 12.5205 32.8947 12.5205C32.627 12.5205 32.3723 12.4731 32.1392 12.3738C31.9017 12.2746 31.6988 12.1452 31.5261 11.9769C31.3534 11.8087 31.2152 11.6145 31.1159 11.3815C31.0166 11.1529 30.9648 10.9069 30.9648 10.6438ZM32.899 11.6922C33.1754 11.6922 33.4128 11.5886 33.6071 11.3858C33.8014 11.1831 33.9007 10.9328 33.9007 10.6438C33.9007 10.3547 33.8014 10.0958 33.6071 9.89307C33.4128 9.69029 33.1754 9.58674 32.899 9.58674C32.6227 9.58674 32.3853 9.69029 32.191 9.89307C31.9967 10.0958 31.8974 10.3461 31.8974 10.6438C31.8974 10.9415 31.9967 11.1831 32.191 11.3858C32.3853 11.5886 32.6227 11.6922 32.899 11.6922Z" fill="#001C00"/>
<path id="Vector_24" d="M35.4106 12.4469V8.82709H36.3647V9.22401C36.4813 9.0687 36.6194 8.94789 36.7835 8.86592C36.9476 8.78395 37.1289 8.74512 37.3275 8.74512C37.4182 8.74943 37.4959 8.75806 37.5606 8.771C37.6211 8.78395 37.6772 8.8012 37.7247 8.83141V9.66408C37.6556 9.62957 37.5779 9.60799 37.4959 9.59074C37.4138 9.57348 37.3275 9.56485 37.2368 9.56485C37.0512 9.56485 36.8828 9.61231 36.7274 9.70291C36.5719 9.79351 36.4511 9.93158 36.3604 10.1042V12.4425H35.4062L35.4106 12.4469Z" fill="#001C00"/>
<path id="Vector_25" d="M1.55314 18.2763V16.4772H0.810547V15.679H1.55314V14.7558L2.50729 14.54V15.679H3.53483V16.4772H2.50729V18.0822C2.50729 18.2547 2.54614 18.3755 2.61954 18.4446C2.69293 18.5136 2.82246 18.5481 3.00811 18.5481C3.09446 18.5481 3.18081 18.5438 3.25852 18.5308C3.33623 18.5179 3.42258 18.4963 3.51756 18.4661V19.2427C3.41394 19.2772 3.29306 19.3031 3.15058 19.3247C3.00811 19.3463 2.8829 19.3549 2.7836 19.3549C2.38208 19.3549 2.07555 19.2643 1.86831 19.0788C1.66108 18.8933 1.55746 18.6301 1.55746 18.2763H1.55314Z" fill="#001C00"/>
<path id="Vector_26" d="M4.00586 19.2984V14.4361L4.96 14.229V15.9634C5.09816 15.8469 5.25359 15.7606 5.42197 15.7002C5.59035 15.6398 5.776 15.6096 5.9746 15.6096C6.39339 15.6096 6.73446 15.7434 7.00214 16.0108C7.26982 16.2783 7.40366 16.6235 7.40366 17.0463V19.2984H6.44951V17.1887C6.44951 16.96 6.38044 16.7788 6.2466 16.6407C6.10844 16.5027 5.9271 16.4337 5.7026 16.4337C5.54285 16.4337 5.4047 16.4639 5.27518 16.5286C5.14997 16.589 5.04203 16.6796 4.96 16.7961V19.3027H4.00586V19.2984Z" fill="#001C00"/>
<path id="Vector_27" d="M11.3721 18.8453C11.1519 19.0265 10.9231 19.156 10.6856 19.2422C10.4482 19.3285 10.1891 19.3674 9.90419 19.3674C9.61924 19.3674 9.37314 19.3199 9.13568 19.2207C8.89822 19.1214 8.69099 18.992 8.5183 18.8238C8.3456 18.6555 8.20744 18.4613 8.10814 18.2284C8.00884 17.9997 7.95703 17.7538 7.95703 17.4906C7.95703 17.2274 8.00452 16.9858 8.09951 16.7572C8.19449 16.5285 8.32401 16.33 8.49239 16.1618C8.66077 15.9935 8.85506 15.8598 9.0882 15.7649C9.31702 15.6656 9.56311 15.6182 9.82215 15.6182C10.0812 15.6182 10.3143 15.6699 10.5345 15.7692C10.7547 15.8684 10.9447 16.0021 11.1044 16.1747C11.2642 16.3473 11.3894 16.5501 11.48 16.7874C11.5707 17.0247 11.6139 17.2835 11.6139 17.5596V17.8099H8.9155C8.98026 18.0385 9.10546 18.2197 9.29111 18.3578C9.47676 18.4959 9.69263 18.5649 9.94304 18.5649C10.0985 18.5649 10.2496 18.539 10.3877 18.4872C10.5259 18.4355 10.6468 18.3664 10.7418 18.2715L11.3678 18.841L11.3721 18.8453ZM9.80057 16.4034C9.5847 16.4034 9.39473 16.4681 9.2393 16.6018C9.07956 16.7356 8.97163 16.9125 8.91118 17.1325H10.6813C10.6209 16.9211 10.5129 16.7442 10.3532 16.6062C10.1935 16.4681 10.0078 16.4034 9.80057 16.4034Z" fill="#001C00"/>
<path id="Vector_28" d="M13.6602 19.2984V14.436H16.0995C16.3369 14.436 16.5528 14.4749 16.7557 14.5525C16.9587 14.6302 17.1314 14.7337 17.2738 14.8675C17.4163 15.0012 17.5286 15.1609 17.6106 15.3507C17.6926 15.5362 17.7315 15.7433 17.7315 15.9633C17.7315 16.1834 17.6926 16.3818 17.6106 16.563C17.5286 16.7442 17.4163 16.9039 17.2695 17.0376C17.1227 17.1714 16.95 17.2749 16.7514 17.3482C16.5528 17.4216 16.3326 17.4604 16.0995 17.4604H14.6661V19.294H13.6602V19.2984ZM15.9872 15.3032H14.6661V16.6277H15.9872C16.2031 16.6277 16.3801 16.5673 16.5096 16.4465C16.6435 16.3257 16.7082 16.1661 16.7082 15.9676C16.7082 15.7692 16.6435 15.6095 16.5096 15.4844C16.3758 15.3593 16.2031 15.2989 15.9872 15.2989V15.3032Z" fill="#001C00"/>
<path id="Vector_29" d="M18.3324 19.2989V15.6791H19.2866V16.0761C19.4032 15.9207 19.5413 15.7999 19.7054 15.718C19.8694 15.636 20.0508 15.5972 20.2494 15.5972C20.34 15.6015 20.4178 15.6101 20.4825 15.6231C20.543 15.636 20.5991 15.6533 20.6466 15.6835V16.5161C20.5775 16.4816 20.4998 16.46 20.4177 16.4428C20.3357 16.4255 20.2494 16.4169 20.1587 16.4169C19.9731 16.4169 19.8047 16.4644 19.6493 16.555C19.4938 16.6456 19.3729 16.7836 19.2823 16.9562V19.2946H18.3281L18.3324 19.2989Z" fill="#001C00"/>
<path id="Vector_30" d="M20.8184 17.4904C20.8184 17.2273 20.8658 16.9814 20.9695 16.7527C21.0688 16.524 21.2069 16.3256 21.3796 16.1573C21.5523 15.989 21.7596 15.8553 21.9927 15.7561C22.2302 15.6568 22.4806 15.6094 22.7482 15.6094C23.0159 15.6094 23.2706 15.6568 23.5038 15.7561C23.7412 15.8553 23.9442 15.9847 24.1169 16.1573C24.2896 16.3299 24.4277 16.524 24.527 16.7527C24.6263 16.9814 24.6781 17.2273 24.6781 17.4904C24.6781 17.7536 24.6263 17.9995 24.527 18.2282C24.4277 18.4569 24.2896 18.6553 24.1169 18.8236C23.9442 18.9919 23.7369 19.1213 23.5038 19.2205C23.2663 19.3154 23.0159 19.3672 22.7482 19.3672C22.4806 19.3672 22.2258 19.3198 21.9927 19.2205C21.7552 19.1213 21.5523 18.9919 21.3796 18.8236C21.2069 18.6553 21.0688 18.4612 20.9695 18.2282C20.8702 17.9995 20.8184 17.7536 20.8184 17.4904ZM22.7482 18.5388C23.0246 18.5388 23.262 18.4353 23.4563 18.2325C23.6506 18.0297 23.7499 17.7795 23.7499 17.4904C23.7499 17.2014 23.6506 16.9425 23.4563 16.7397C23.262 16.537 23.0246 16.4334 22.7482 16.4334C22.4719 16.4334 22.2345 16.537 22.0402 16.7397C21.8459 16.9425 21.7466 17.1928 21.7466 17.4904C21.7466 17.7881 21.8459 18.0297 22.0402 18.2325C22.2345 18.4353 22.4719 18.5388 22.7482 18.5388Z" fill="#001C00"/>
<path id="Vector_31" d="M25.266 19.2982V15.6784H26.2202V15.9502C26.3497 15.838 26.4922 15.7561 26.6519 15.6957C26.8117 15.6396 26.98 15.6094 27.1657 15.6094C27.3988 15.6094 27.6061 15.6568 27.796 15.7518C27.986 15.8467 28.1371 15.9804 28.258 16.153C28.4005 15.9761 28.5775 15.8424 28.7804 15.7518C28.9833 15.6611 29.2078 15.6137 29.4539 15.6137C29.8554 15.6137 30.1879 15.7474 30.4469 16.0149C30.706 16.2824 30.8355 16.6276 30.8355 17.0504V19.3025H29.8813V17.1928C29.8813 16.9641 29.8209 16.7829 29.6957 16.6448C29.5705 16.5068 29.4064 16.4377 29.1992 16.4377C29.0567 16.4377 28.9229 16.4679 28.8063 16.5327C28.6897 16.5931 28.5861 16.6837 28.5041 16.8001C28.5041 16.8433 28.5127 16.8821 28.517 16.9253C28.517 16.9684 28.5257 17.0116 28.5257 17.059V19.3111H27.5715V17.2014C27.5715 16.9727 27.5111 16.7915 27.3859 16.6535C27.265 16.5154 27.0966 16.4464 26.8894 16.4464C26.7469 16.4464 26.6174 16.4723 26.5094 16.5283C26.4015 16.5844 26.3022 16.6664 26.2159 16.7699V19.3111H25.2617L25.266 19.2982Z" fill="#001C00"/>
<path id="Vector_32" d="M31.3965 17.4904C31.3965 17.2273 31.444 16.9814 31.5476 16.7527C31.6469 16.524 31.785 16.3256 31.9577 16.1573C32.1304 15.989 32.3377 15.8553 32.5708 15.7561C32.8083 15.6568 33.0587 15.6094 33.3264 15.6094C33.594 15.6094 33.8488 15.6568 34.0819 15.7561C34.3194 15.8553 34.5223 15.9847 34.695 16.1573C34.8677 16.3299 35.0058 16.524 35.1051 16.7527C35.2044 16.9814 35.2562 17.2273 35.2562 17.4904C35.2562 17.7536 35.2044 17.9995 35.1051 18.2282C35.0058 18.4569 34.8677 18.6553 34.695 18.8236C34.5223 18.9919 34.3151 19.1213 34.0819 19.2205C33.8445 19.3154 33.594 19.3672 33.3264 19.3672C33.0587 19.3672 32.804 19.3198 32.5708 19.2205C32.3334 19.1213 32.1304 18.9919 31.9577 18.8236C31.785 18.6553 31.6469 18.4612 31.5476 18.2282C31.4483 17.9995 31.3965 17.7536 31.3965 17.4904ZM33.3264 18.5388C33.6027 18.5388 33.8401 18.4353 34.0344 18.2325C34.2287 18.0297 34.328 17.7795 34.328 17.4904C34.328 17.2014 34.2287 16.9425 34.0344 16.7397C33.8401 16.537 33.6027 16.4334 33.3264 16.4334C33.0501 16.4334 32.8126 16.537 32.6183 16.7397C32.424 16.9425 32.3247 17.1928 32.3247 17.4904C32.3247 17.7881 32.424 18.0297 32.6183 18.2325C32.8126 18.4353 33.0501 18.5388 33.3264 18.5388Z" fill="#001C00"/>
<path id="Vector_33" d="M36.1625 18.2763V16.4772H35.4199V15.679H36.1625V14.7558L37.1167 14.54V15.679H38.1442V16.4772H37.1167V18.0822C37.1167 18.2547 37.1555 18.3755 37.2289 18.4446C37.3023 18.5136 37.4318 18.5481 37.6175 18.5481C37.7038 18.5481 37.7902 18.5438 37.8679 18.5308C37.9456 18.5179 38.032 18.4963 38.1269 18.4661V19.2427C38.0233 19.2772 37.9024 19.3031 37.76 19.3247C37.6175 19.3463 37.4923 19.3549 37.393 19.3549C36.9915 19.3549 36.6849 19.2643 36.4777 19.0788C36.2705 18.8933 36.1668 18.6301 36.1668 18.2763H36.1625Z" fill="#001C00"/>
<path id="Vector_34" d="M39.0889 15.2479C38.9421 15.2479 38.8126 15.1961 38.7047 15.0882C38.5967 14.9804 38.5449 14.8553 38.5449 14.7043C38.5449 14.5533 38.5967 14.4281 38.7047 14.3203C38.8126 14.2124 38.9378 14.1606 39.0889 14.1606C39.24 14.1606 39.3652 14.2124 39.4732 14.3203C39.5811 14.4281 39.6329 14.5533 39.6329 14.7043C39.6329 14.8553 39.5811 14.9804 39.4732 15.0882C39.3652 15.1961 39.24 15.2479 39.0889 15.2479ZM39.5681 15.6793V19.2991H38.614V15.6793H39.5681Z" fill="#001C00"/>
<path id="Vector_35" d="M40.1465 17.4904C40.1465 17.2273 40.194 16.9814 40.2976 16.7527C40.3969 16.524 40.5351 16.3256 40.7077 16.1573C40.8804 15.989 41.0877 15.8553 41.3208 15.7561C41.5583 15.6568 41.8087 15.6094 42.0764 15.6094C42.344 15.6094 42.5988 15.6568 42.8319 15.7561C43.0694 15.8553 43.2723 15.9847 43.445 16.1573C43.6177 16.3299 43.7558 16.524 43.8551 16.7527C43.9544 16.9814 44.0062 17.2273 44.0062 17.4904C44.0062 17.7536 43.9544 17.9995 43.8551 18.2282C43.7558 18.4569 43.6177 18.6553 43.445 18.8236C43.2723 18.9919 43.0651 19.1213 42.8319 19.2205C42.5945 19.3154 42.344 19.3672 42.0764 19.3672C41.8087 19.3672 41.554 19.3198 41.3208 19.2205C41.0834 19.1213 40.8804 18.9919 40.7077 18.8236C40.5351 18.6553 40.3969 18.4612 40.2976 18.2282C40.1983 17.9995 40.1465 17.7536 40.1465 17.4904ZM42.0764 18.5388C42.3527 18.5388 42.5901 18.4353 42.7844 18.2325C42.9787 18.0297 43.078 17.7795 43.078 17.4904C43.078 17.2014 42.9787 16.9425 42.7844 16.7397C42.5901 16.537 42.3527 16.4334 42.0764 16.4334C41.8001 16.4334 41.5626 16.537 41.3683 16.7397C41.174 16.9425 41.0747 17.1928 41.0747 17.4904C41.0747 17.7881 41.174 18.0297 41.3683 18.2325C41.5626 18.4353 41.8001 18.5388 42.0764 18.5388Z" fill="#001C00"/>
<path id="Vector_36" d="M44.5957 19.2982V15.6784H45.5499V15.9632C45.688 15.8467 45.8434 15.7604 46.0118 15.7C46.1802 15.6396 46.3658 15.6094 46.5644 15.6094C46.9832 15.6094 47.3243 15.7431 47.592 16.0106C47.8597 16.2781 47.9935 16.6233 47.9935 17.0461V19.2982H47.0394V17.1884C47.0394 16.9598 46.9703 16.7786 46.8364 16.6405C46.6983 16.5025 46.517 16.4334 46.2924 16.4334C46.1327 16.4334 45.9945 16.4636 45.865 16.5283C45.7398 16.5887 45.6319 16.6793 45.5499 16.7958V19.3025H44.5957V19.2982Z" fill="#001C00"/>
<path id="Vector_37" d="M0.894531 24.3425C0.894531 24.0793 0.942025 23.8334 1.04564 23.6047C1.14494 23.3761 1.2831 23.1776 1.4558 23.0094C1.62849 22.8411 1.83573 22.7073 2.06887 22.6081C2.30632 22.5089 2.55673 22.4614 2.82441 22.4614C3.09209 22.4614 3.34682 22.5089 3.57996 22.6081C3.81742 22.7073 4.02034 22.8368 4.19303 23.0094C4.36573 23.1819 4.50388 23.3761 4.60318 23.6047C4.70248 23.8334 4.7543 24.0793 4.7543 24.3425C4.7543 24.6057 4.70248 24.8516 4.60318 25.0803C4.50388 25.3089 4.36573 25.5074 4.19303 25.6756C4.02034 25.8439 3.8131 25.9733 3.57996 26.0726C3.3425 26.1675 3.09209 26.2193 2.82441 26.2193C2.55673 26.2193 2.30201 26.1718 2.06887 26.0726C1.83141 25.9733 1.62849 25.8439 1.4558 25.6756C1.2831 25.5074 1.14494 25.3132 1.04564 25.0803C0.946343 24.8516 0.894531 24.6057 0.894531 24.3425ZM2.82441 25.3909C3.10073 25.3909 3.33819 25.2874 3.53247 25.0846C3.72675 24.8818 3.82606 24.6316 3.82606 24.3425C3.82606 24.0534 3.72675 23.7946 3.53247 23.5918C3.33819 23.389 3.10073 23.2855 2.82441 23.2855C2.5481 23.2855 2.31064 23.389 2.11636 23.5918C1.92208 23.7946 1.82277 24.0448 1.82277 24.3425C1.82277 24.6402 1.92208 24.8818 2.11636 25.0846C2.31064 25.2874 2.5481 25.3909 2.82441 25.3909Z" fill="#001C00"/>
<path id="Vector_38" d="M4.91797 22.5298H5.72532V22.1846C5.72532 21.7834 5.8419 21.4727 6.07935 21.2527C6.31681 21.037 6.65788 20.9248 7.10258 20.9248C7.19756 20.9248 7.30118 20.9291 7.40048 20.9421C7.5041 20.955 7.59045 20.9679 7.66384 20.9852V21.7834C7.57749 21.7661 7.49978 21.7489 7.4307 21.7402C7.36162 21.7316 7.29254 21.7273 7.21915 21.7273C7.03782 21.7273 6.90398 21.7661 6.81331 21.8438C6.72265 21.9214 6.67947 22.0422 6.67947 22.1976V22.5254H7.66816V23.3236H6.67947V26.1452H5.72532V23.3236H4.91797V22.5254V22.5298Z" fill="#001C00"/>
<path id="Vector_39" d="M9.62305 26.1494V21.2871H11.4925C11.8551 21.2871 12.1919 21.3518 12.5071 21.4726C12.8223 21.5977 13.0942 21.7703 13.3231 21.986C13.5519 22.2018 13.7332 22.4649 13.8671 22.7626C14.0009 23.0646 14.0657 23.3839 14.0657 23.7291C14.0657 24.0742 14.0009 24.3848 13.8671 24.6825C13.7332 24.9802 13.5562 25.2348 13.3231 25.4505C13.0899 25.6662 12.8223 25.8345 12.5071 25.9596C12.1919 26.0847 11.8551 26.1451 11.4925 26.1451H9.62305V26.1494ZM11.4838 22.1845H10.629V25.2563H11.4838C11.6954 25.2563 11.8983 25.2175 12.084 25.1399C12.2696 25.0622 12.4337 24.9543 12.5718 24.8163C12.71 24.6782 12.8179 24.5186 12.9 24.3331C12.9777 24.1475 13.0165 23.9491 13.0165 23.7377C13.0165 23.5263 12.9777 23.3149 12.9 23.125C12.8222 22.9352 12.7143 22.7713 12.5718 22.6332C12.4337 22.4951 12.2696 22.3873 12.084 22.3053C11.8983 22.2233 11.6954 22.1888 11.4838 22.1888V22.1845Z" fill="#001C00"/>
<path id="Vector_40" d="M17.9346 25.6964C17.7144 25.8776 17.4856 26.007 17.2481 26.0933C17.0107 26.1796 16.7516 26.2184 16.4667 26.2184C16.1817 26.2184 15.9356 26.171 15.6982 26.0718C15.4607 25.9725 15.2535 25.8431 15.0808 25.6748C14.9081 25.5066 14.7699 25.3124 14.6706 25.0794C14.5713 24.8508 14.5195 24.6049 14.5195 24.3417C14.5195 24.0785 14.567 23.8369 14.662 23.6082C14.757 23.3796 14.8865 23.1811 15.0549 23.0129C15.2233 22.8446 15.4176 22.7108 15.6507 22.6159C15.8795 22.5167 16.1256 22.4692 16.3847 22.4692C16.6437 22.4692 16.8768 22.521 17.097 22.6202C17.3172 22.7195 17.5072 22.8532 17.6669 23.0258C17.8267 23.1984 17.9519 23.4011 18.0425 23.6384C18.1332 23.8757 18.1764 24.1346 18.1764 24.4107V24.6609H15.478C15.5428 24.8896 15.668 25.0708 15.8536 25.2089C16.0393 25.3469 16.2551 25.416 16.5055 25.416C16.661 25.416 16.8121 25.3901 16.9502 25.3383C17.0884 25.2865 17.2093 25.2175 17.3043 25.1226L17.9303 25.6921L17.9346 25.6964ZM16.3631 23.2545C16.1472 23.2545 15.9572 23.3192 15.8018 23.4529C15.6421 23.5867 15.5341 23.7636 15.4737 23.9836H17.2438C17.1834 23.7722 17.0754 23.5953 16.9157 23.4572C16.756 23.3192 16.5703 23.2545 16.3631 23.2545Z" fill="#001C00"/>
<path id="Vector_41" d="M18.4902 25.7182L18.9608 25.0883C19.1724 25.2264 19.3753 25.3299 19.5653 25.399C19.7552 25.468 19.9452 25.4982 20.1352 25.4982C20.3467 25.4982 20.5194 25.4637 20.6446 25.3946C20.7698 25.3256 20.8346 25.2307 20.8346 25.1185C20.8346 25.0279 20.8 24.9503 20.7266 24.8942C20.6533 24.8381 20.541 24.7992 20.3813 24.7777L19.6862 24.6741C19.3278 24.618 19.0558 24.5016 18.8702 24.329C18.6845 24.1521 18.5895 23.9191 18.5895 23.6257C18.5895 23.2806 18.7277 23.0001 18.9997 22.7931C19.2717 22.586 19.6387 22.4824 20.0963 22.4824C20.3597 22.4824 20.6187 22.5213 20.8691 22.5989C21.1195 22.6766 21.357 22.7887 21.5858 22.9354L21.1282 23.5481C20.9296 23.4316 20.7396 23.3453 20.5583 23.2892C20.3769 23.2331 20.1956 23.2029 20.01 23.2029C19.8373 23.2029 19.6991 23.2374 19.5955 23.3022C19.4919 23.3669 19.4401 23.4532 19.4401 23.561C19.4401 23.6559 19.4789 23.7336 19.5566 23.7854C19.6343 23.8371 19.7595 23.876 19.9366 23.9019L20.6317 24.0054C20.9857 24.0572 21.2577 24.1737 21.4477 24.3549C21.6419 24.5361 21.7369 24.7647 21.7369 25.0409C21.7369 25.2134 21.6981 25.3687 21.616 25.5154C21.534 25.6621 21.4261 25.7872 21.2879 25.8951C21.1498 26.003 20.9814 26.0849 20.7871 26.1453C20.5928 26.2057 20.3813 26.2359 20.1568 26.2359C19.8286 26.2359 19.5178 26.1928 19.2328 26.1065C18.9479 26.0202 18.7018 25.8951 18.4945 25.7355L18.4902 25.7182Z" fill="#001C00"/>
<path id="Vector_42" d="M22.6788 22.0989C22.532 22.0989 22.4024 22.0472 22.2945 21.9393C22.1866 21.8315 22.1348 21.7063 22.1348 21.5553C22.1348 21.4043 22.1866 21.2792 22.2945 21.1713C22.4024 21.0635 22.5277 21.0117 22.6788 21.0117C22.8299 21.0117 22.9551 21.0635 23.063 21.1713C23.1709 21.2792 23.2228 21.4043 23.2228 21.5553C23.2228 21.7063 23.1709 21.8315 23.063 21.9393C22.9551 22.0472 22.8299 22.0989 22.6788 22.0989ZM23.158 22.5304V26.1502H22.2038V22.5304H23.158Z" fill="#001C00"/>
<path id="Vector_43" d="M25.5712 26.1711C25.3165 26.1711 25.0747 26.1236 24.8502 26.0244C24.6257 25.9295 24.4314 25.7957 24.2674 25.6275C24.1033 25.4592 23.9738 25.265 23.8788 25.0407C23.7838 24.8163 23.7363 24.5747 23.7363 24.3159C23.7363 24.057 23.7838 23.8197 23.8831 23.5954C23.9781 23.371 24.1119 23.1769 24.2803 23.0086C24.4487 22.8404 24.643 22.7109 24.8718 22.616C25.1006 22.5211 25.3424 22.4736 25.6015 22.4736C25.7828 22.4736 25.9555 22.4995 26.1195 22.5513C26.2836 22.6031 26.439 22.6764 26.5815 22.767V22.5297H27.5184V26.1495C27.5184 26.6284 27.363 26.9951 27.0564 27.254C26.7499 27.5128 26.3052 27.6423 25.7267 27.6423C25.4503 27.6423 25.1827 27.6164 24.9236 27.5603C24.6646 27.5042 24.4314 27.4222 24.2199 27.3187L24.5523 26.5766C24.7509 26.6715 24.9452 26.7449 25.1352 26.7966C25.3251 26.8441 25.5151 26.87 25.7051 26.87C25.99 26.87 26.2016 26.8096 26.3484 26.6845C26.4952 26.5594 26.5685 26.3825 26.5685 26.1452V25.8475C26.4261 25.9553 26.2706 26.033 26.098 26.0891C25.9253 26.1452 25.7526 26.1711 25.5712 26.1711ZM24.6732 24.3159C24.6732 24.6093 24.7725 24.8552 24.9754 25.058C25.1783 25.2607 25.4244 25.3643 25.7137 25.3643C25.8864 25.3643 26.0418 25.3341 26.1843 25.278C26.3268 25.2219 26.452 25.1399 26.5599 25.0407V23.6169C26.4563 23.5134 26.3311 23.4357 26.1843 23.3797C26.0375 23.3236 25.8821 23.2934 25.718 23.2934C25.4244 23.2934 25.1783 23.3926 24.9754 23.5911C24.7725 23.7895 24.6689 24.0354 24.6689 24.3202L24.6732 24.3159Z" fill="#001C00"/>
<path id="Vector_44" d="M28.2715 26.1502V22.5305H29.2256V22.8152C29.3638 22.6987 29.5192 22.6124 29.6876 22.552C29.856 22.4916 30.0416 22.4614 30.2402 22.4614C30.659 22.4614 31.0001 22.5952 31.2678 22.8627C31.5354 23.1302 31.6693 23.4753 31.6693 23.8981V26.1502H30.7151V24.0405C30.7151 23.8118 30.6461 23.6306 30.5122 23.4926C30.3741 23.3545 30.1927 23.2855 29.9682 23.2855C29.8085 23.2855 29.6703 23.3157 29.5408 23.3804C29.4156 23.4408 29.3077 23.5314 29.2256 23.6479V26.1545H28.2715V26.1502Z" fill="#001C00"/>
<path id="Vector_45" d="M1.53228 28.95C1.38548 28.95 1.25596 28.8982 1.14803 28.7904C1.04009 28.6825 0.988281 28.5574 0.988281 28.4064C0.988281 28.2554 1.04009 28.1303 1.14803 28.0224C1.25596 27.9146 1.38117 27.8628 1.53228 27.8628C1.68339 27.8628 1.80859 27.9146 1.91652 28.0224C2.02446 28.1303 2.07627 28.2554 2.07627 28.4064C2.07627 28.5574 2.02446 28.6825 1.91652 28.7904C1.80859 28.8982 1.68339 28.95 1.53228 28.95ZM2.01151 29.3815V33.0012H1.05736V29.3815H2.01151Z" fill="#001C00"/>
<path id="Vector_46" d="M2.75391 33.0013V29.3815H3.70806V29.6663C3.84621 29.5498 4.00164 29.4635 4.17002 29.4031C4.33839 29.3427 4.52405 29.3125 4.72265 29.3125C5.14144 29.3125 5.48251 29.4462 5.75019 29.7137C6.01787 29.9812 6.15171 30.3264 6.15171 30.7492V33.0013H5.19756V30.8916C5.19756 30.6629 5.12848 30.4817 4.99464 30.3436C4.85649 30.2056 4.67516 30.1365 4.45065 30.1365C4.29091 30.1365 4.15275 30.1667 4.02323 30.2315C3.89802 30.2919 3.79009 30.3825 3.70806 30.499V33.0056H2.75391V33.0013Z" fill="#001C00"/>
<path id="Vector_47" d="M7.87109 33.0005L9.87437 28.1382H11.0444L13.0174 33.0005H11.9251L11.433 31.7234H9.42536L8.92454 33.0005H7.87541H7.87109ZM9.7319 30.9167H11.1221L10.4356 29.1262L9.7319 30.9167Z" fill="#001C00"/>
<path id="Vector_48" d="M12.5684 29.3813H13.3757V29.0362C13.3757 28.6349 13.4923 28.3243 13.7297 28.1043C13.9672 27.8885 14.3083 27.7764 14.753 27.7764C14.848 27.7764 14.9516 27.7807 15.0509 27.7936C15.1545 27.8066 15.2408 27.8195 15.3142 27.8368V28.6349C15.2279 28.6177 15.1502 28.6004 15.0811 28.5918C15.012 28.5832 14.9429 28.5788 14.8695 28.5788C14.6882 28.5788 14.5544 28.6177 14.4637 28.6953C14.373 28.773 14.3299 28.8938 14.3299 29.0491V29.377H15.3185V30.1752H14.3299V32.9968H13.3757V30.1752H12.5684V29.377V29.3813Z" fill="#001C00"/>
<path id="Vector_49" d="M15.8149 33.0011V29.3813H16.769V29.7782C16.8856 29.6229 17.0237 29.5021 17.1878 29.4201C17.3519 29.3381 17.5332 29.2993 17.7318 29.2993C17.8225 29.3036 17.9002 29.3123 17.9649 29.3252C18.0254 29.3381 18.0815 29.3554 18.129 29.3856V30.2183C18.0599 30.1838 17.9822 30.1622 17.9002 30.1449C17.8181 30.1277 17.7318 30.119 17.6411 30.119C17.4555 30.119 17.2871 30.1665 17.1317 30.2571C16.9762 30.3477 16.8554 30.4858 16.7647 30.6583V32.9967H15.8105L15.8149 33.0011Z" fill="#001C00"/>
<path id="Vector_50" d="M19.1143 28.95C18.9675 28.95 18.838 28.8982 18.7301 28.7904C18.6221 28.6825 18.5703 28.5574 18.5703 28.4064C18.5703 28.2554 18.6221 28.1303 18.7301 28.0224C18.838 27.9146 18.9632 27.8628 19.1143 27.8628C19.2654 27.8628 19.3906 27.9146 19.4986 28.0224C19.6065 28.1303 19.6583 28.2554 19.6583 28.4064C19.6583 28.5574 19.6065 28.6825 19.4986 28.7904C19.3906 28.8982 19.2654 28.95 19.1143 28.95ZM19.5979 29.3815V33.0012H18.6437V29.3815H19.5979Z" fill="#001C00"/>
<path id="Vector_51" d="M22.1088 32.2376C22.2729 32.2376 22.424 32.2031 22.5622 32.1383C22.7003 32.0736 22.8385 31.9701 22.968 31.832L23.5379 32.4231C23.3523 32.6259 23.1321 32.7855 22.873 32.8977C22.614 33.0099 22.3463 33.0659 22.0657 33.0659C21.785 33.0659 21.5519 33.0185 21.3188 32.9193C21.0856 32.82 20.8827 32.6906 20.7143 32.5223C20.5459 32.3541 20.4121 32.1599 20.3128 31.9269C20.2135 31.6983 20.166 31.4524 20.166 31.1892C20.166 30.926 20.2135 30.6801 20.3128 30.4514C20.4078 30.2228 20.5416 30.0243 20.7143 29.856C20.8827 29.6878 21.0856 29.554 21.3188 29.4548C21.5519 29.3556 21.8023 29.3081 22.0657 29.3081C22.3549 29.3081 22.6269 29.3642 22.8946 29.4764C23.158 29.5885 23.3825 29.7482 23.5681 29.9509L22.9853 30.5679C22.8558 30.4255 22.7176 30.3177 22.5665 30.24C22.4197 30.1667 22.26 30.1278 22.0873 30.1278C21.8153 30.1278 21.5821 30.2314 21.3965 30.4342C21.2108 30.6369 21.1158 30.8872 21.1158 31.1849C21.1158 31.4826 21.2108 31.7285 21.4051 31.9269C21.5994 32.1254 21.8325 32.2246 22.1088 32.2246V32.2376Z" fill="#001C00"/>
<path id="Vector_52" d="M25.1844 33.0615C24.7958 33.0615 24.4764 32.9579 24.2303 32.7508C23.9842 32.5437 23.8633 32.2762 23.8633 31.9484C23.8633 31.6205 23.9971 31.3357 24.2605 31.1416C24.5239 30.9474 24.8865 30.8482 25.3528 30.8482C25.4996 30.8482 25.6507 30.8611 25.7975 30.8827C25.9443 30.9043 26.0911 30.9388 26.2335 30.9862V30.7274C26.2335 30.5203 26.1688 30.3607 26.0393 30.2571C25.9097 30.1493 25.7198 30.0975 25.4694 30.0975C25.3182 30.0975 25.1499 30.1234 24.9729 30.1708C24.7958 30.2183 24.5929 30.2959 24.3641 30.3952L24.0187 29.6919C24.2993 29.5625 24.5757 29.4633 24.8433 29.3985C25.111 29.3338 25.3744 29.2993 25.6334 29.2993C26.1213 29.2993 26.4969 29.4158 26.7689 29.6488C27.0409 29.8818 27.1747 30.214 27.1747 30.6368V32.9838H26.2379V32.7336C26.0867 32.8414 25.9227 32.9191 25.7543 32.9709C25.5859 33.0226 25.396 33.0485 25.1887 33.0485L25.1844 33.0615ZM24.7743 31.9311C24.7743 32.0692 24.8347 32.1813 24.9556 32.259C25.0765 32.341 25.2362 32.3798 25.4348 32.3798C25.5946 32.3798 25.737 32.3582 25.8709 32.3194C26.0047 32.2806 26.1256 32.2245 26.2335 32.1511V31.6075C26.117 31.5601 25.9961 31.5299 25.8709 31.5083C25.7414 31.4867 25.6118 31.4781 25.4694 31.4781C25.2535 31.4781 25.0808 31.5169 24.9599 31.5989C24.839 31.6809 24.7743 31.7887 24.7743 31.9268V31.9311Z" fill="#001C00"/>
</g>
</svg>
