<svg width="41" height="40" viewBox="0 0 41 40" fill="none" xmlns="http://www.w3.org/2000/svg">
<g id="Group">
<path id="Vector" d="M16.6209 21.8566H12.9251C13.1669 17.9694 13.046 9.05153 9.95046 6.1652C9.19923 5.46627 8.32711 5.21604 7.20027 5.38861C5.98708 5.57413 5.15381 6.16952 4.57528 7.26969C2.19639 11.8127 5.04156 22.1026 6.30656 25.1054H2.37772C0.801866 20.5321 -1.46909 10.8636 1.307 5.56119C2.42521 3.42557 4.26875 2.10536 6.639 1.74295C8.87542 1.40212 10.8873 2.00182 12.4632 3.47302C17.031 7.73996 16.8108 18.4871 16.6165 21.8523L16.6209 21.8566Z" fill="#001C00"/>
<path id="Vector_2" d="M5.26232 22.1111L1.76953 20.9376C3.31948 16.3298 8.91484 8.26193 20.0624 7.24805L20.3948 10.9153C8.79827 11.968 5.40047 21.6926 5.26232 22.1068V22.1111Z" fill="#001C00"/>
<g id="Group_2">
<path id="Vector_3" d="M17.8303 23.6982L13.9316 39.5234H17.7266L21.6253 23.6982H17.8303Z" fill="#001C00"/>
<path id="Vector_4" d="M10.3617 38.4491C9.61906 38.4491 8.89805 38.3542 8.2159 38.1687C5.17213 37.3489 3.31564 34.9199 3.59627 32.1285C3.75602 30.5106 4.48566 29.1775 5.69453 28.2715C8.73399 25.9978 14.0401 26.9944 17.2134 27.5898C17.7746 27.6933 18.2582 27.7883 18.569 27.8271L19.6354 31.6712C17.4422 36.4904 13.7076 38.4534 10.366 38.4534L10.3617 38.4491ZM10.9704 30.5322C9.71404 30.5322 8.58288 30.7091 7.90073 31.2182C7.64168 31.4123 7.33947 31.7316 7.26175 32.4953C7.14518 33.6472 8.17273 34.3418 9.17437 34.6136C11.2338 35.1702 13.9796 34.2512 15.8016 31.0758C14.4459 30.8299 12.6024 30.5322 10.9747 30.5322H10.9704Z" fill="#001C00"/>
</g>
<path id="Vector_5" d="M38.8128 28.0907C38.8732 26.736 38.748 25.3554 38.4285 23.9964C37.5478 20.2515 34.1068 18.0382 30.0614 18.612C27.3673 18.9917 24.5869 20.7088 23.4989 23.6987H27.7559C28.4942 22.8876 29.5303 22.4043 30.5795 22.2577C32.2158 22.0247 34.3054 22.564 34.8451 24.8377C35.0566 25.748 35.1516 26.6324 35.1473 27.4824C30.1175 26.9345 26.1843 27.7714 23.9522 29.9588C22.5016 31.3783 21.9447 33.2248 22.4196 35.0239C22.9506 37.0388 24.7121 38.6178 27.1299 39.2564C27.7991 39.4332 28.4726 39.5195 29.1418 39.5195C31.2703 39.5195 33.3512 38.6437 35.0609 36.9784C36.5116 35.5675 37.5737 33.7426 38.1954 31.7105C38.9768 31.8831 39.7928 32.0945 40.652 32.3404V28.5222C40.026 28.3582 39.4129 28.2115 38.8128 28.0821V28.0907ZM32.4878 34.3466C31.5595 35.2526 30.0398 36.2233 28.0667 35.7013C26.9658 35.4122 26.1628 34.791 25.9771 34.0877C25.8131 33.4578 26.1843 32.9271 26.5254 32.5949C27.458 31.6803 29.3533 30.9943 32.2762 30.9943C32.9584 30.9943 33.6966 31.0331 34.4954 31.1151C34.0075 32.4569 33.2822 33.5743 32.4834 34.3509L32.4878 34.3466Z" fill="#001C00"/>
<g id="Group_3">
<path id="Vector_6" d="M32.7944 3.61522C29.5866 3.49011 25.6146 4.74128 22.4197 10.1084C22.152 8.94781 22.0829 7.3558 22.4197 5.17272C22.437 5.06486 22.4542 4.97857 22.4585 4.91386H18.7326C18.1411 9.02115 18.7067 12.2052 20.3948 14.3969C19.8206 15.9285 19.2939 17.6629 18.8276 19.6302L18.2793 21.8521H22.0786L22.4154 20.4974C22.7046 19.2635 23.05 17.9908 23.4731 16.7396C24.6345 17.2142 25.9729 17.4601 27.484 17.4644H27.5315C31.4819 17.4644 34.0378 16.0493 35.4885 14.8628C37.4184 13.2881 38.5452 11.1783 38.5884 9.08156C38.6445 6.47135 36.8701 3.76191 32.7901 3.61091L32.7944 3.61522ZM27.5315 13.7842H27.497C26.4565 13.7799 25.5844 13.6289 24.8633 13.3312C26.5903 9.83226 29.0815 7.16597 32.6563 7.2954C34.1674 7.3558 34.9272 7.92961 34.9056 9.01253C34.8625 11.0187 32.2807 13.7842 27.5272 13.7842H27.5315Z" fill="#001C00"/>
<path id="Vector_7" d="M20.5978 3.69312C21.6184 3.69312 22.4457 2.86639 22.4457 1.84656C22.4457 0.826733 21.6184 0 20.5978 0C19.5773 0 18.75 0.826733 18.75 1.84656C18.75 2.86639 19.5773 3.69312 20.5978 3.69312Z" fill="#001C00"/>
</g>
<path id="Vector_8" d="M38.8088 39.5281C39.8293 39.5281 40.6566 38.7013 40.6566 37.6815C40.6566 36.6617 39.8293 35.835 38.8088 35.835C37.7882 35.835 36.9609 36.6617 36.9609 37.6815C36.9609 38.7013 37.7882 39.5281 38.8088 39.5281Z" fill="#D3F1DC"/>
</g>
</svg>
