<svg width="49" height="33" viewBox="0 0 49 33" fill="none" xmlns="http://www.w3.org/2000/svg">
<path id="Vector" d="M13.02 12.03C12.99 12.16 12.91 12.31 12.79 12.49C12.67 12.67 12.51 12.83 12.32 13C12.13 13.16 11.93 13.32 11.7 13.47C11.48 13.62 11.25 13.76 11.02 13.88C10.79 14 10.57 14.09 10.37 14.14C10.17 14.2 10.01 14.21 9.88 14.18C9.62 14.12 8.88 13.63 7.66 12.71C6.46 11.83 5.31 10.99 4.2 10.2C1.99 8.68001 0.650003 7.57001 0.160003 6.85001C-0.129997 6.34001 -0.0399967 5.70001 0.440003 4.93001C1.27 3.82001 2.41 2.79002 3.89 1.83002C4.47 1.38002 4.98 1.21002 5.43 1.31002C5.69 1.37002 5.94 1.54002 6.18 1.83002C6.42 2.12002 6.9 2.84002 7.63 3.99002C8.72 5.66002 9.72 7.14002 10.66 8.44002C11.52 9.62002 12.15 10.51 12.56 11.11C12.89 11.63 13.04 11.93 13.02 12.03ZM37.82 3.03001C38.09 2.58001 38.45 2.36001 38.89 2.35001C39.33 2.34001 40.13 2.58001 41.28 3.04001C42.47 3.51001 43.48 3.89001 44.34 4.18001C46.52 5.04001 47.88 5.76001 48.4 6.31001C48.51 6.40001 48.52 6.71002 48.42 7.23002C48.32 7.75002 48.06 8.88002 47.63 10.62C46.92 13.31 46.45 15.74 46.2 17.89C45.92 20.04 45.67 21.85 45.44 23.32C45.24 24.8 45.1 26.52 45 28.47C44.92 30.05 44.86 30.99 44.82 31.31C44.78 31.62 44.7 31.84 44.58 31.94C44.44 32.11 44.23 32.22 43.95 32.26C41 31.77 37 30.82 31.95 29.41C28.08 28.17 25.22 27.44 23.37 27.23C21.86 26.99 19.79 26.6 17.17 26.04C15.31 25.69 14.13 25.44 13.62 25.29C13.11 25.14 12.83 25.01 12.79 24.9C12.66 24.73 12.58 24.52 12.55 24.26C12.52 24 12.55 23.61 12.63 23.11C12.71 22.6 12.85 21.91 13.04 21.04C13.89 17.12 14.53 13.48 14.98 10.11C15.19 8.59002 15.51 6.70001 15.95 4.42001L16.66 0.810015L17.08 0.550013C17.3 0.160013 18.31 0.300015 20.09 0.970015C21.01 1.28002 22.16 1.60001 23.54 1.95001C25.05 2.32001 25.97 2.72001 26.31 3.13001C26.64 3.54001 26.67 4.38001 26.38 5.64001C26.01 7.76001 25.26 10.2 24.13 12.93C23.21 15.37 22.77 16.94 22.82 17.63C22.97 17.7 23.49 17.76 24.36 17.82L25.76 17.93L26.11 16.38C26.38 15.32 26.68 14.3 27 13.32C27.39 12.32 27.6 11.57 27.61 11.06C27.59 10.24 27.72 9.83001 27.99 9.82001C27.9 9.63001 28.61 9.70002 30.13 10.05C31.17 10.28 31.9 10.5 32.33 10.7C32.91 10.86 32.99 11.99 32.59 14.07C32.35 15.44 32.2 16.48 32.15 17.18V18.15L33.53 18.51L34.88 18.86L35.05 18.08C35.39 16.42 35.86 13.56 36.47 9.48002C36.89 6.72002 37.16 5.00001 37.3 4.32001C37.44 3.64001 37.61 3.20001 37.82 3.01001V3.03001Z" fill="#AEC1FF"/>
</svg>
