<svg width="40" height="40" viewBox="0 0 40 40" fill="none" xmlns="http://www.w3.org/2000/svg">
<g id="Group">
<g id="Group_2">
<path id="Vector" d="M32.2256 13.8098C31.9359 12.7007 31.0665 11.8313 29.9673 11.5415C27.9788 11.002 19.9948 11.002 19.9948 11.002C19.9948 11.002 12.0108 11.002 10.0223 11.5415C8.92311 11.8413 8.06375 12.7107 7.76398 13.8098C7.23437 15.8083 7.23438 19.9952 7.23438 19.9952C7.23438 19.9952 7.23437 24.1721 7.76398 26.1806C8.05376 27.2897 8.92311 28.1591 10.0223 28.4489C12.0108 28.9885 19.9948 28.9885 19.9948 28.9885C19.9948 28.9885 27.9788 28.9885 29.9673 28.4489C31.0665 28.1491 31.9259 27.2797 32.2256 26.1806C32.7552 24.1821 32.7552 19.9952 32.7552 19.9952C32.7552 19.9952 32.7552 15.8183 32.2256 13.8098Z" fill="#001C00"/>
<path id="Vector_2" d="M17.3867 23.7925V16.1982L24.0517 19.9954L17.3867 23.7925Z" fill="#D3F1DC"/>
</g>
</g>
</svg>
