<svg width="144" height="144" viewBox="0 0 144 144" fill="none" xmlns="http://www.w3.org/2000/svg">
<g id="SVG Vector logo 1">
<g id="Group">
<path id="Vector" d="M59.113 36.2339C58.278 35.5668 57.6109 34.8157 56.6081 34.4801C56.1907 34.3962 55.8571 34.3962 55.5236 34.564C55.8571 34.9815 56.3585 35.1472 56.776 35.4808C57.4431 35.8982 57.8605 36.6493 58.278 37.3185C58.4437 37.7359 58.4437 38.1534 58.1941 38.487C58.3598 38.9863 58.8612 39.4037 58.7773 40.0729C58.278 40.0729 57.6927 39.989 57.2752 39.989C55.1879 38.2352 52.767 38.3191 50.4321 38.4031C50.1825 38.5688 50.0985 38.7366 50.0985 38.9044C49.765 38.7387 49.4314 38.5709 49.014 38.7387C48.8482 38.9044 48.93 39.0723 49.014 39.238C48.7643 39.238 48.5965 39.238 48.3468 39.3219C48.2629 39.0723 48.2629 38.9883 48.1811 38.7387C47.8476 38.5709 47.4301 38.6548 46.9287 38.6548C46.5951 39.1562 45.7602 39.0723 45.4266 39.7394C45.0092 39.5736 44.5099 39.4058 44.1742 39.3219C43.9246 39.4058 43.8407 39.5715 43.8407 39.7394C44.0903 39.8233 44.4239 39.8233 44.6756 40.1568C44.2582 40.3226 43.9246 40.2408 43.8407 39.7394C43.4232 39.8233 43.2575 40.0729 43.3393 40.4065C43.0897 40.5722 42.7561 40.74 42.5044 40.74C42.2547 40.5743 42.5883 40.4065 42.3386 40.0729C42.1729 39.989 41.8393 39.989 41.6715 40.4065C41.5037 40.74 41.254 40.9897 40.8366 40.9897C40.5869 40.9058 40.8366 40.5722 40.503 40.4065C40.1695 40.6561 39.6681 40.5722 39.3345 41.1575C38.4157 40.6561 37.5807 41.0736 36.7479 41.4911C36.4982 41.6568 36.7479 42.2421 36.1647 42.2421C35.915 42.4917 35.5815 42.4917 35.3297 42.5757C34.9123 42.4099 34.8305 41.8246 34.2452 41.7407C33.9955 42.0743 34.4109 42.2421 34.3291 42.4917C33.8298 43.2428 32.9109 42.6596 32.3256 42.9931C32.2417 42.9931 32.1599 42.9092 32.076 42.8274C31.4928 43.3267 31.241 44.0798 30.9075 44.7469C28.988 48.9195 27.2363 53.0082 25.5664 57.2647C24.6475 59.5199 22.8119 65.9435 21.7273 68.1148C21.3099 68.8658 20.9763 69.6168 20.8085 70.5357C20.6428 71.2867 20.1414 71.8699 19.8917 72.623C18.7232 75.4593 17.5547 78.2138 16.4701 81.0522C15.7191 82.9717 14.4667 86.2275 14.4667 88.3128C13.8835 88.9799 13.8835 89.7309 14.0492 90.4841C13.7996 90.7337 13.6318 90.8176 13.3821 90.6498C12.6311 90.2323 11.8801 89.8988 11.213 89.2316C10.1284 87.1443 10.378 84.9751 10.6298 82.722C10.7137 81.8032 10.7955 80.8025 11.0472 79.8837C11.4647 77.7984 11.6304 75.7111 12.2157 73.6258C12.7989 71.7902 13.1325 69.9546 13.7178 68.119C14.8024 64.6135 17.1394 57.0193 19.0589 53.7655C20.0596 52.0117 21.0623 50.1761 21.8952 48.2566C22.2287 47.4217 22.8119 46.6706 23.2294 45.9196C23.2294 45.5021 23.1455 45.2525 22.8119 45.0847C22.3944 45.0847 22.728 45.584 22.3944 45.6679C21.977 45.8336 21.6434 45.5021 21.3099 45.5021C20.8085 45.5861 20.8924 46.1693 20.4749 46.2532C20.1414 46.2532 20.2253 45.67 19.8078 45.7539C19.7239 45.5861 19.7239 45.4203 19.4743 45.3364C19.3064 45.4203 19.2246 45.5861 19.2246 45.7539C19.1407 45.8378 19.1407 45.9196 19.0589 46.0035C19.0589 46.3371 19.3924 46.2532 19.5582 46.5867C17.5547 47.0881 15.5534 47.7552 13.466 48.2566C12.1297 48.5063 10.7955 49.1755 9.54308 49.4251C9.20952 49.0916 9.54308 49.0076 9.54308 48.8419C8.29067 48.5923 7.12217 48.4244 5.87185 48.5084C5.45438 48.2587 5.03691 48.0091 4.61944 47.7573C3.95233 47.7573 3.28312 48.1748 2.53209 47.7573C2.28245 47.5077 2.03281 47.2559 2.11462 46.7567C2.94956 46.0056 4.11806 45.9217 4.9509 45.1707C5.78584 44.4197 6.87043 43.9183 7.53754 42.8337C8.62212 42.9176 9.37315 42.3323 10.292 41.7491C10.8752 41.4155 11.4605 41.1659 12.2115 40.9142C13.2122 40.6645 14.2989 40.1631 15.2156 39.5799C15.3814 39.5799 15.3814 39.4121 15.4653 39.2464C15.631 39.0807 15.7149 39.4121 16.0485 39.4121C16.382 39.2464 16.7156 38.9946 17.0492 38.6611C17.6344 38.6611 18.3016 38.745 18.8029 38.1618C19.0526 37.8282 19.4701 38.1618 19.8036 37.9122C20.1372 37.7464 19.7197 37.1611 20.1372 36.9933C20.305 36.9094 20.4707 36.9094 20.5546 37.0772C20.7204 37.1611 20.8043 37.4108 21.056 37.4108C21.2218 37.4108 21.3057 37.3269 21.3896 37.3269C21.8071 36.9933 21.3896 36.6597 21.6392 36.408C21.8889 36.1563 22.2224 36.2423 22.4742 36.2423C22.5581 36.3262 22.6399 36.408 22.8916 36.3262C22.9756 36.2423 23.0574 36.0765 23.1413 35.9087C23.307 36.0765 23.3909 36.2423 23.5588 36.4101C23.9762 36.3262 24.058 35.9926 24.142 35.6591C24.3916 35.743 24.6412 35.743 24.9769 35.8248C25.9776 34.906 27.23 34.4067 28.6481 34.4067C29.1474 34.3227 29.8166 34.3227 30.0663 33.6556C30.4837 33.8235 30.4837 34.4906 30.9851 34.4906C31.3187 34.2409 31.069 33.9913 30.9851 33.7396C31.1508 33.8235 31.4005 33.8235 31.6522 33.9053C31.9019 33.8214 31.9858 33.4878 32.2354 33.3221C32.4851 33.2382 32.6529 33.4878 32.9025 33.5717C33.2361 33.5717 33.4039 33.0703 33.8214 33.1543C33.9053 33.2382 33.9053 33.32 33.9871 33.4878C34.9039 33.9053 35.5731 33.2382 36.3241 32.9885C36.4898 32.9885 36.6577 32.8228 36.8234 32.7389C37.3248 32.8228 37.8241 32.9885 38.1597 33.0724C38.659 32.9885 38.8268 32.7389 39.0765 32.5732C40.3289 32.5732 41.4974 32.4074 42.7477 32.2396C42.8316 32.1557 42.9134 31.906 43.2491 31.906C44.4176 32.0718 45.8357 32.2396 47.1721 32.2396C50.4258 32.2396 56.2683 32.9067 58.8549 35.2437C59.1046 35.4933 59.3542 35.8269 59.1046 36.2444L59.113 36.2339ZM8.62422 49.6685C8.29067 50.002 7.95711 50.1698 7.53964 49.9181C7.87319 49.5845 8.20675 49.5845 8.62422 49.6685ZM10.6277 48.0825C10.1263 48.2482 9.87663 48.416 10.0424 48.9174C10.5437 48.9174 10.7095 48.6678 10.6277 48.0825ZM11.7101 86.473H11.6262V86.6387L11.7101 86.473ZM12.629 79.9634V79.1284C12.2954 79.462 12.2954 79.7116 12.629 79.9634ZM12.7968 78.8767C12.6311 78.8767 12.6311 79.0424 12.6311 79.1263C12.715 79.0424 12.8807 79.0424 12.7968 78.8767ZM14.966 70.5336C14.4646 70.8671 14.7982 71.1168 14.7164 71.5343C15.1338 71.2007 15.1338 70.9511 14.966 70.5336ZM14.8821 71.8678L14.7164 71.9517H14.8003L14.8842 71.8678H14.8821ZM17.8044 46.6643L17.7205 46.4986L17.6365 46.5825L17.8023 46.6664L17.8044 46.6643ZM19.2225 45.7476H19.7218C19.5561 45.9972 19.3882 45.9972 19.2225 45.7476ZM20.4749 45.1623C20.391 45.0784 20.3092 45.0784 20.2253 45.0784C20.2253 45.2441 20.3092 45.328 20.3092 45.4119C20.3931 45.328 20.3931 45.2462 20.4749 45.1623ZM21.142 54.0928H21.0581L21.142 54.1767V54.0928ZM22.3105 52.339C21.8092 52.4229 21.6434 52.5887 21.8092 53.0061C22.1427 52.8404 22.3105 52.7565 22.3105 52.339ZM22.1427 36.7332H22.0588V36.8171L22.1427 36.7332ZM22.8098 44.577L22.7259 44.4931C22.7259 44.549 22.7539 44.577 22.8098 44.577ZM23.0616 50.3356C22.9776 50.3356 22.8958 50.3356 22.8958 50.5013C22.8958 50.5852 22.9797 50.5852 23.0616 50.5852C23.1455 50.5013 23.1455 50.4195 23.0616 50.3356ZM23.8126 48.9174C23.5629 49.1671 23.3133 49.3349 23.2294 49.8363C23.8126 49.7524 23.8965 49.5027 23.8965 49.1692C23.9804 49.0853 23.9804 48.9195 23.8126 48.9195V48.9174ZM24.5636 47.5832H24.4797L24.314 47.8328C24.4797 47.7489 24.5636 47.6671 24.5636 47.5832ZM25.3146 46.4147H25.2307V46.4986L25.3146 46.4147ZM26.3153 44.4952H26.2314L26.3153 44.5791V44.4952ZM33.0746 42.1582H32.9906V42.3239L33.0746 42.1582ZM33.9934 33.4794C33.9095 33.5633 33.7438 33.6451 33.8277 33.813C33.9934 33.7291 33.9116 33.5633 33.9934 33.4794ZM36.1626 42.2421C36.0787 41.9925 36.1626 41.7407 35.7451 41.8246C35.7451 42.1582 35.9948 42.1582 36.1626 42.2421ZM38.4157 41.575C38.3317 41.9085 38.0821 41.9085 37.6646 41.8246C37.9143 41.4911 38.0821 41.3232 38.4157 41.575ZM42.5065 71.7839L42.4225 71.7C42.5065 71.7 42.5065 71.7839 42.5065 71.7839ZM50.1006 38.9044C50.2664 38.9883 50.4342 38.9883 50.516 39.238C50.2664 39.3219 50.1825 39.0723 50.1006 38.9044ZM51.6866 39.0702L51.7705 38.9862V39.0702H51.6866ZM53.1887 35.2311C53.1047 34.9815 52.939 34.8136 52.6894 35.0654C52.6894 35.315 52.8551 35.3989 53.1887 35.2311ZM53.7719 35.2311C54.3551 35.8982 55.1061 35.9821 55.7753 36.3996C56.4424 36.8171 57.1095 37.3185 57.6948 37.8178C57.1095 36.2318 55.4417 35.2311 53.7719 35.2311ZM54.5229 39.3198C54.3572 39.4037 54.1893 39.3198 54.1054 39.1541C54.3551 38.9863 54.439 39.0702 54.5229 39.3198Z" fill="#EEC61D"/>
<path id="Vector_2" d="M59.7297 82.4388C59.1109 82.5165 58.8801 81.9752 58.1836 81.8976C57.4116 82.2081 56.562 82.1305 55.7879 81.434C55.4774 81.2787 55.169 81.434 54.9383 81.3564C53.3166 80.9704 51.7705 81.048 50.1468 81.1235C47.6734 81.2787 45.2022 81.434 42.7288 81.6647C39.9471 81.8976 37.1653 82.592 34.4612 83.0556C32.9151 82.4367 32.6844 82.3612 31.2159 82.5144C30.7522 82.5144 30.597 82.206 30.2886 82.0507C29.825 81.8955 29.5942 82.592 29.1285 82.2836C29.1285 82.206 29.0509 82.1284 29.0509 82.0507C29.2838 81.7424 29.6698 81.5871 30.0558 81.5095C30.597 81.3543 31.0606 80.9683 31.369 80.427C31.5243 79.9634 31.2138 79.4998 31.369 78.8033C31.9879 77.876 33.2235 77.4124 34.306 77.0264C36.6241 76.4076 38.9422 75.6356 41.4135 75.8663C42.2631 75.9439 43.1903 75.7111 43.9644 75.4027C47.1322 76.0992 50.2223 76.0215 53.2369 76.4852C53.5474 76.6404 53.7781 76.8712 54.0865 77.0264C54.4725 77.1817 54.7809 76.8712 55.3222 76.9488C56.6354 77.7984 57.6403 79.1117 58.8004 80.2718C59.264 80.7354 59.8052 81.5074 59.7276 82.4347L59.7297 82.4388ZM32.8417 60.2647C33.3829 60.4975 32.9193 60.8059 33.1522 61.0367C32.7662 60.8038 32.9969 60.573 32.8417 60.2647ZM69.621 56.0144C69.235 58.7186 66.6841 63.1995 64.2904 64.9009C63.3632 65.5953 62.5136 66.3694 61.5087 67.219C60.4262 67.6826 59.0353 67.8379 58.1857 68.9183C56.3312 69.1511 54.7851 70.542 52.9327 70.156C52.6999 69.8476 52.6999 69.6147 52.7775 69.384C52.7775 69.2287 53.0859 69.0756 52.9327 68.9204C52.6999 68.8427 52.5467 68.9204 52.3915 69.0756C52.0055 69.384 52.3915 69.9252 52.081 70.2357C51.4642 70.6993 50.9209 70.3909 50.3817 70.0028C49.2993 70.8525 47.986 70.4665 46.828 70.7748C45.4371 71.1609 43.9686 71.0832 42.5778 70.8525C40.9561 70.5441 39.41 70.0028 38.0192 69.0756C37.7108 68.8427 37.4003 68.612 37.0143 68.4567C36.3199 68.3015 35.8563 67.8379 35.7787 67.1435C35.6234 67.0659 35.3927 67.0659 35.3927 66.833C35.7011 66.6022 35.7011 66.9106 35.7787 67.0659C35.9339 67.2211 36.1647 67.3763 36.5507 67.2211C36.0094 66.6799 36.1647 65.7526 35.0822 65.7526C35.1598 65.7526 35.1598 65.675 35.1598 65.675C35.3151 65.3645 35.4703 65.0561 35.2374 64.7478C34.4654 63.4345 34.6962 61.8884 34.2326 60.4996C34.1549 60.036 34.2326 59.65 33.9242 59.1864C33.6137 58.7228 33.8466 58.0263 34.157 57.7179C34.157 57.1766 33.9242 56.8683 33.771 56.4823C33.8487 56.4046 34.0018 56.327 33.9263 56.1718C33.6934 56.2494 33.771 56.4046 33.771 56.4823C33.5382 56.4046 33.3074 56.2494 33.3074 55.941C33.385 55.4774 34.0794 55.7858 34.157 55.3222C34.0794 55.0893 33.8466 55.1669 33.6158 55.1669C33.385 53.4677 33.5382 51.9216 34.3123 50.3754C34.8535 49.293 35.3948 48.2902 36.0115 47.2853C36.7835 45.9721 37.2472 44.5812 37.866 43.268C38.4849 42.0323 39.2569 41.0275 40.0289 39.945C40.5701 39.173 41.3421 38.4765 41.8834 37.6269C43.3519 35.85 47.5245 33.3011 49.765 33.3011C50.4615 33.3011 51.2335 33.4564 52.0831 33.8424C52.1607 33.8424 52.0055 34.3836 52.5467 34.6144C53.474 34.692 54.3236 34.0731 55.2508 33.8424C56.2557 33.6095 57.1808 33.3787 58.1857 33.3011C59.7318 33.0683 61.0451 33.6095 62.5115 34.4612C62.8219 34.8472 63.3611 35.4661 63.9023 36.0829C64.4436 36.7017 64.8296 37.3206 65.0624 38.0926C65.2953 38.8646 65.6813 39.6366 66.3757 40.1778C66.5309 40.2555 66.6841 40.4862 66.6841 40.6415C66.6841 41.9547 67.7665 42.882 68.1526 44.1952C68.3854 44.3504 68.6938 44.5057 69.0022 44.7364C68.9246 44.7364 68.8469 44.7364 68.6162 44.8141C68.9267 45.3553 69.1574 45.8966 69.3127 46.5133C69.6987 47.4406 69.7763 48.4454 70.007 49.5258C70.007 49.6034 69.9294 49.6811 69.9294 49.7587C70.9343 51.9216 69.9294 53.9313 69.621 56.0165V56.0144ZM33.6137 62.7359V62.8135H33.5361L33.6137 62.7359ZM37.4003 54.7788L37.2451 54.7012L37.3227 54.8564L37.4003 54.7788ZM37.6332 53.6187C37.6332 53.5411 37.5555 53.4635 37.4779 53.5411C37.4003 53.5411 37.4003 53.6187 37.4003 53.6187C37.4003 53.6963 37.4779 53.7739 37.4779 53.7739C37.5555 53.7739 37.6332 53.6963 37.6332 53.6187ZM39.3324 55.0096C39.8737 53.6187 40.4149 52.381 40.5701 50.9922C39.5653 51.4558 39.41 51.5335 39.3324 52.3831C39.2548 53.1551 38.4828 54.0068 39.3324 55.0117V55.0096ZM39.3324 56.0144C39.3324 55.9368 39.3324 55.8592 39.2548 55.7837C39.1772 55.7837 39.0996 55.7837 39.0219 55.8613C39.0219 55.9389 39.0996 56.0165 39.0996 56.0942C39.1772 56.0165 39.2548 56.0165 39.3303 56.0165L39.3324 56.0144ZM54.9404 56.4004C55.4816 55.8592 56.0228 55.4732 56.7172 55.318C57.1808 54.7767 57.6445 54.3131 58.0305 53.7719C58.1857 53.2306 58.2633 52.6894 58.5717 52.3034C59.5766 50.5265 59.3437 48.7475 59.113 46.8951C58.8822 45.5819 58.2633 44.4994 57.2585 43.6498C55.1732 43.2638 53.3187 44.0358 51.4642 44.6546C51.1537 44.191 51.4642 43.8826 51.5418 43.5721C51.7747 43.5721 52.0055 43.6498 52.1607 43.4169C51.9279 43.1861 51.6971 43.2617 51.5418 43.5721C50.8475 43.2617 50.151 43.4169 49.4566 43.6498C47.835 44.1134 46.2889 44.963 44.7427 45.735C44.0484 46.121 43.3519 46.7399 43.3519 47.8203C43.9707 47.665 44.4344 47.5119 44.898 47.279C44.898 47.5895 44.6651 47.8203 44.3567 47.8979C43.119 48.3615 42.2715 49.2111 41.8058 50.3713C41.6505 50.7573 41.4198 51.0656 41.189 51.3761C40.9561 54.2355 39.7981 57.0172 40.6478 60.0297C41.0338 60.7262 41.8079 60.957 42.5023 61.0346C44.5875 61.2674 46.5972 61.1898 48.4517 60.4157C50.8475 59.4885 53.088 58.2528 54.9424 56.3983L54.9404 56.4004ZM40.8009 49.1377C41.1869 48.9825 41.2645 48.7517 41.1093 48.3657C40.8009 48.521 40.6457 48.7517 40.8009 49.1377ZM45.5148 47.0504C45.3595 47.2056 45.1287 47.2832 44.8959 47.2832C45.0511 47.128 45.2819 47.0504 45.5148 47.0504ZM45.5148 47.0504C45.9008 46.4336 46.5196 46.1231 47.2916 45.8147C46.9056 46.356 46.3644 46.742 45.5148 47.0504ZM47.5224 35.8479C47.4448 35.6927 47.5224 35.5395 47.3671 35.5395C47.2895 35.6948 47.3671 35.7724 47.5224 35.8479ZM49.2993 45.1204C48.9909 45.5064 48.6049 45.6616 48.0615 45.7371C48.372 45.0427 48.758 44.9651 49.2993 45.1204ZM48.1412 35.3067H48.2965L48.2189 35.1514L48.1412 35.3067ZM50.7677 44.4239C50.8454 44.7343 50.6901 44.8099 50.4594 44.8875C50.2265 44.9651 50.0734 44.9651 49.9181 44.7323C49.9181 44.4994 50.0734 44.3463 50.3041 44.2686C50.5349 44.191 50.6901 44.191 50.7677 44.4239ZM67.6113 55.6284C67.7666 55.4732 67.8421 55.3201 67.8421 55.0872C67.7645 55.0872 67.6113 55.1648 67.4561 55.1648C67.5337 55.3201 67.5337 55.4732 67.5337 55.6284C67.1477 55.6284 67.0701 55.9389 66.9148 56.2473C66.682 56.9417 66.2981 57.5606 65.7547 58.0242C64.9827 58.7186 64.5191 59.6458 63.9002 60.3423C63.8485 60.394 63.8226 60.4458 63.8226 60.4975C63.6674 60.5751 63.4366 60.6528 63.359 60.7304C62.6646 61.7353 61.7353 62.5073 60.8856 63.0485C60.7304 63.4345 60.8856 63.745 60.6528 63.8981C60.2668 63.9757 60.0339 64.4394 59.4927 64.3617C59.3374 64.3617 59.2619 64.5946 59.2619 64.8254C59.2619 64.8254 59.3395 64.8254 59.3395 64.903L59.2619 64.8254C58.1018 65.4442 56.8662 66.1386 55.7061 66.833C55.1648 67.0659 54.7012 67.3743 54.7012 68.0707C54.7012 68.1484 54.4704 68.226 54.3928 68.226C55.1648 68.7672 55.9389 68.3812 56.5557 68.3036C57.0193 67.9931 56.7864 67.5316 57.0193 67.1435C57.3298 67.2211 57.4053 66.833 57.7158 66.833C58.1018 67.1435 58.5654 67.1435 59.1067 66.9106C59.2619 66.6022 59.2619 66.2918 59.2619 65.9834C59.5703 65.9834 59.8032 66.061 60.0339 66.061C60.4975 65.8302 60.3444 65.2114 60.8059 65.0561C61.1164 64.8233 61.5024 65.1338 61.6555 64.9785C62.3499 64.2841 62.738 63.51 63.5876 63.124C63.8205 63.0464 63.8205 62.738 63.8205 62.5052C64.903 62.1968 65.1338 61.0367 66.061 60.6507C66.2939 59.4129 67.2966 58.5654 67.6071 57.4053C67.3743 57.3277 67.2966 57.1724 67.0659 57.0193C67.2987 56.6333 67.6847 56.1697 67.6071 55.6284H67.6113ZM56.7172 54.4683L56.6396 54.546L56.7172 54.3907V54.4683ZM57.4116 36.0787C57.6445 36.2339 57.7221 36.4647 58.0305 36.001C57.7976 35.9234 57.6445 35.7682 57.4116 36.0787ZM59.8073 49.3685C59.885 49.4461 60.0381 49.5237 60.1933 49.3685C60.1933 49.0601 60.1157 48.6741 60.0381 48.3636C60.1933 48.1329 60.5017 48.2084 60.5793 47.9C60.5017 47.8224 60.4241 47.7448 60.4241 47.6671C60.3465 47.5895 60.1933 47.5895 60.1157 47.5895C60.0381 47.3567 60.0381 47.1259 59.5745 47.2035C59.5745 47.9755 59.3416 48.672 59.8073 49.3664V49.3685ZM64.2128 60.4178C64.0576 60.6507 63.9799 60.7283 63.8268 60.8814V60.4954C63.982 60.4954 64.0576 60.4954 64.2128 60.4178ZM64.0576 55.1648L64.1352 55.2424V55.1648H64.0576ZM65.5261 51.609C65.5261 51.6866 65.6037 51.6866 65.6813 51.6866C65.7589 51.609 65.7589 51.5314 65.6813 51.4537C65.5261 51.3761 65.4484 51.4537 65.5261 51.609ZM65.9121 49.7545C66.2204 49.1356 66.2204 48.5944 66.0673 48.286C65.8344 48.7496 65.4484 49.1356 65.9121 49.7545ZM65.9121 50.3733C65.6016 50.6062 65.6792 50.7593 65.9897 50.837C66.1449 50.6041 66.2225 50.451 65.9121 50.3733ZM66.2204 47.7469C66.2981 47.7469 66.3757 47.6692 66.2981 47.514C66.2204 47.514 66.1428 47.514 66.0652 47.5916C66.0652 47.6692 66.0652 47.7469 66.2204 47.7469ZM66.6841 57.9466L66.7617 57.8689V57.9466C66.6841 57.9466 66.6841 58.0242 66.6841 58.0242V57.9466ZM67.4561 54.16C67.1477 54.6236 67.6889 54.7788 67.8421 55.0872C67.9973 54.546 67.9197 54.2376 67.4561 54.16ZM67.7666 41.489C67.7666 41.6442 67.8442 41.7198 67.8442 41.875L68.2302 42.1834C68.0749 42.0281 67.9218 41.9505 67.8442 41.875C67.7665 41.7974 67.6134 41.7198 67.7666 41.489ZM68.3078 52.1502C68.2302 52.0726 68.1526 52.0726 68.0749 52.2278V52.3055C68.1526 52.3831 68.2302 52.3831 68.3078 52.3055V52.1502Z" fill="#EEC61D"/>
<path id="Vector_3" d="M104.926 42.4917C104.926 44.3462 104.77 46.1231 104.384 47.9C104.152 49.1356 104.307 50.451 103.843 51.6866C103.61 52.2278 103.533 52.7691 103.457 53.3082C103.457 53.3082 103.457 53.2306 103.38 53.2306C103.224 53.3858 103.071 53.6166 103.147 53.7718C103.457 54.3907 103.069 55.0096 102.916 55.4711C101.989 58.0221 101.37 60.7262 100.52 63.2751C100.212 64.3575 100.134 65.4379 99.8258 66.5204C99.5153 67.5253 98.8985 68.4525 98.3573 69.3798C97.1993 71.6203 95.886 73.7055 94.6483 75.7929C94.4154 76.1034 94.1847 76.3341 93.9539 76.5649C92.563 78.1886 91.3253 79.9655 89.7037 81.3563C88.1576 82.6696 86.4583 83.8297 84.4507 84.2157C83.9094 84.3709 83.3682 84.4486 82.827 84.0605C82.5941 83.9052 82.2857 83.9052 81.9773 83.9052C81.0501 83.8276 80.2781 83.2864 79.5816 82.7451C78.9627 82.9004 78.4215 83.1311 77.8823 82.5899C77.574 82.2794 77.0327 82.2794 76.5691 82.1263C76.5691 82.2039 76.5691 82.3591 76.4139 82.3591C76.4139 82.2039 76.4915 82.1263 76.5691 82.0486C76.2607 81.585 75.7971 81.4319 75.2558 81.585C73.9426 80.7354 72.1657 80.5801 71.2385 79.1117C70.6196 78.1844 69.9252 77.1796 69.8476 75.8663C69.9252 75.7111 70.0029 75.4803 70.0805 75.2474C69.6945 74.5531 69.0756 73.9342 69.9252 73.1622C69.6924 72.8538 69.5392 72.5433 69.3064 72.3126C69.0735 70.9972 69.4616 69.7616 69.5392 68.4483C69.6945 67.1351 69.6945 65.8218 70.4665 64.5841C70.5441 64.4289 70.3889 64.0429 70.3889 63.7345C70.5441 63.5016 70.6972 63.2709 70.9301 63.038C70.9301 62.1108 70.7749 61.1835 71.5469 60.4891C71.7021 60.2563 71.3916 60.1031 71.4692 59.8703C71.4692 59.7926 71.4692 59.6374 71.5469 59.5619C71.8573 58.8654 72.3965 58.2465 72.1657 57.4766C72.6294 56.4718 72.5517 55.3138 73.4035 54.5396C73.5587 54.1536 73.3258 53.9208 73.4035 53.5348C74.0978 52.8404 73.6342 51.5271 74.7167 51.0614C74.6391 50.5978 74.6391 50.1342 74.8719 49.7482C75.3356 48.9762 75.5663 48.1265 76.032 47.2748C76.4181 46.656 76.8041 46.0392 77.0369 45.3427V45.1119C78.197 44.1071 78.5054 42.561 79.355 41.3253C79.4326 41.1701 79.6655 41.017 79.8963 40.8617C80.0515 41.789 79.4326 42.4078 79.0466 43.1798C78.4278 44.2623 77.8865 45.3427 77.5005 46.5028C77.4229 46.7357 77.1922 46.9664 76.9593 47.2748C77.2677 48.2021 76.5733 48.8986 76.2649 49.6706C75.7237 51.2146 74.874 52.6831 74.1797 54.2292C74.102 54.4599 74.0244 54.6928 73.9468 54.9236C73.7139 56.0837 73.3279 57.2417 72.7867 58.2465C72.6314 58.4794 72.6314 58.7102 72.5538 58.943C72.3986 60.4891 71.935 61.8779 71.549 63.3464C71.3937 63.81 71.549 64.4289 71.0853 64.8149C71.2406 65.2785 71.163 65.8197 71.549 66.1281C71.3182 66.9001 71.0077 67.6742 71.163 68.5239C71.3937 68.7567 71.549 68.6791 71.7042 68.6015C71.8594 68.5239 71.935 68.4462 71.935 68.4462C72.321 66.9777 72.9398 65.5869 73.1727 64.1205C73.7139 60.7975 74.7943 57.5521 75.7992 54.3844C75.9544 53.8432 75.9544 53.2243 76.1852 52.6852C76.8041 51.2167 77.3453 49.6727 77.9621 48.1265C78.0397 47.7405 78.3481 47.5853 78.5788 47.2769C79.2753 46.0413 79.5837 44.5728 80.2802 43.4127C81.0522 42.1771 81.671 40.8638 82.3654 39.6261C82.7514 39.0093 83.1374 38.3905 83.5234 37.8492C83.7563 37.5387 83.9094 37.308 83.8339 36.8444C84.6059 36.536 84.9164 35.6087 85.766 35.3759C85.9989 35.2206 86.3073 35.2982 86.6157 35.5311C86.6933 35.9947 86.7709 36.536 87.1569 36.9996C87.0017 37.2325 86.9261 37.3856 86.8485 37.5408C87.1569 37.8513 87.3898 38.1597 87.6205 38.5457C87.6205 38.7009 87.5429 38.9317 87.4653 39.0093C86.2276 40.4778 85.8416 42.4099 85.2248 44.1847C84.9919 45.1119 84.4528 45.9616 84.1423 46.8133C83.3703 49.2867 82.4431 51.7579 81.7466 54.2313C81.5913 54.848 81.4361 55.4669 81.5137 56.1613C81.5913 57.0109 81.2808 57.9381 81.0501 58.7899C80.8948 58.9451 80.6641 59.0983 80.5088 59.2535C80.0452 60.0255 80.4312 61.0304 79.8921 61.7268C80.0473 61.9597 80.1228 62.1129 80.2781 62.3457C80.1228 62.7317 79.6592 62.8093 79.6592 63.273C79.6592 63.659 79.6592 63.9673 79.5816 64.3554H79.6592L79.7368 64.4331C79.6851 64.4331 79.6333 64.4072 79.5816 64.3554C79.0404 64.8967 79.9676 64.9743 79.9676 65.3603C79.89 65.7463 79.6592 65.6708 79.3487 65.5932C78.9627 67.9889 79.0404 70.307 78.9627 72.7028C78.9627 72.7804 79.118 72.858 79.1956 72.9335C79.1956 74.0936 79.3508 74.2468 80.5088 74.6328C81.5913 74.1691 83.9094 70.693 84.2954 69.6882C84.6059 68.8385 85.2227 68.0665 85.9192 67.4477C86.6136 66.6757 87.1548 65.9016 87.6184 64.9743C88.0044 64.1247 90.7085 59.6437 91.2498 58.9472C91.4826 58.7143 91.4826 58.3284 91.3274 57.9423C92.4875 57.4787 92.4875 56.0879 93.4127 55.2382C93.335 54.6215 93.5679 53.925 94.1847 53.4614C94.7259 53.0754 94.8035 52.3789 95.0343 51.8376C95.4203 50.8328 96.4252 50.1384 96.4252 48.9027C96.4252 48.6699 96.6559 48.3615 96.8112 48.1307C97.0419 47.8203 97.1972 47.4343 97.3524 47.0483C97.9713 45.8903 98.2797 44.5749 99.0517 43.4945C99.1293 43.3393 99.2845 43.2617 99.5929 43.4169C99.36 44.4218 99.2845 45.5042 98.588 46.4315C98.588 47.2811 98.0468 47.8224 97.816 48.4391C97.6608 49.2111 97.5077 49.9852 96.8112 50.3712C96.5783 51.4537 95.7287 52.1481 95.6511 53.2306C95.6511 53.6166 95.4958 53.8495 95.1874 53.925C95.0322 54.2355 95.4203 54.5438 95.0322 54.7746C94.877 55.1606 94.7238 55.5466 94.1826 55.469C94.1826 56.0879 92.4057 58.792 91.9421 59.4087C92.0197 60.336 91.0148 60.7996 90.7064 61.6492C90.4736 62.4212 90.01 63.1932 89.3932 63.8897C89.3932 64.3533 89.4708 64.817 89.3156 65.2806C88.6967 65.3582 88.3883 66.0526 87.6939 66.1302C87.8492 66.5938 87.8492 66.9798 87.6939 67.4435C87.4611 67.5987 87.3079 67.8295 87.4611 68.1379C87.8471 68.1379 87.9247 67.9071 88.0023 67.6742C88.7743 67.8295 89.0848 67.133 89.238 66.6694C89.5484 65.975 90.0876 65.5093 90.4757 64.8925C90.9393 64.0429 91.6358 63.424 92.1749 62.652C93.1798 61.1835 95.3427 57.6298 95.7287 56.0858C96.0392 55.0809 96.6559 54.1536 96.9664 53.1488C97.044 52.8404 97.1993 52.532 97.43 52.2992C97.7405 51.7579 98.1265 51.2167 98.202 50.5223C98.4349 48.9762 99.3621 47.7405 99.5929 46.2721C99.5929 46.1168 99.7481 46.0413 99.8258 45.9637C100.445 45.1917 100.598 44.2644 100.908 43.3372C101.449 41.7911 101.913 40.2471 102.377 38.6233C102.61 38.4681 102.84 38.2373 103.073 38.0045C103.228 37.5408 103.304 37.1548 103.537 36.6136C103.923 37.0772 104.156 37.4632 104.542 37.8513C104.697 38.4681 104.85 39.087 105.083 39.7834C104.85 40.6331 104.928 41.5603 104.928 42.4876L104.926 42.4917ZM73.3237 78.6522C72.8601 77.5697 72.7825 76.567 72.6293 75.5621C72.3189 74.402 72.0881 73.244 71.7797 72.0063C71.5469 71.2343 71.2385 70.307 72.0126 69.5329C71.7797 69.3777 71.7797 68.9917 71.4713 69.0693C71.0853 70.3049 70.9301 71.5427 70.8525 72.7783C70.8525 72.8559 70.7749 72.9335 70.7749 73.0111C70.7749 73.0111 70.8525 73.0888 70.8525 73.1664C70.7749 73.1664 70.7749 73.0888 70.6972 73.0888C70.6972 73.0888 70.6972 73.1664 70.7749 73.244C70.7749 75.0985 71.2385 76.7977 72.3189 78.3439C72.5517 78.4215 72.8601 78.4991 73.3237 78.6522ZM71.6245 66.1365H71.5469V66.0589L71.6245 66.1365ZM73.865 74.2489C73.7874 74.4817 73.7874 74.6349 74.0978 74.9453C74.1755 74.6349 74.0978 74.4041 73.865 74.2489ZM74.251 75.9481C74.0957 76.181 74.1734 76.3341 74.4062 76.3341C74.4838 76.1034 74.4062 76.0257 74.251 75.9481ZM75.4887 77.725C75.3335 77.339 75.1027 77.0306 75.0251 76.6425C75.0251 76.4873 74.9475 76.4873 74.8698 76.5649C74.7146 76.7201 74.5615 76.9509 74.637 77.3369C74.7922 77.6474 75.023 78.0313 75.2558 78.4194C75.6419 78.2641 75.5642 78.0334 75.4887 77.725ZM79.5061 70.6951C79.5061 70.6175 79.4285 70.6175 79.4285 70.4623C79.5837 70.5399 79.5837 70.6175 79.5061 70.6951ZM79.5061 69.3042C79.3508 68.9959 79.5061 68.8406 79.5837 68.6875C79.5837 68.8427 79.5837 68.9959 79.5061 69.3042ZM79.7368 67.4498C79.5816 67.2169 79.5816 67.0638 79.7368 66.9085C79.8921 67.0638 79.8921 67.2945 79.7368 67.4498ZM79.6613 68.6854V68.0665C79.8942 68.3749 79.7389 68.5302 79.6613 68.6854ZM80.8193 39.4792C80.8193 40.1757 80.3557 40.5617 79.8921 40.8701C79.8921 40.2513 80.1228 39.7876 80.8193 39.4792ZM81.2053 38.938L81.1277 39.0156V38.938H81.2053ZM82.5962 37.3164H82.5186V37.2388L82.5962 37.3164ZM87.31 68.5302C86.9996 68.5302 86.8464 68.5301 86.924 68.8406C87.1548 68.9182 87.31 68.9183 87.31 68.5302ZM87.696 67.4498C87.7737 67.5274 87.8513 67.605 88.0044 67.6826C87.8492 67.605 87.7716 67.5274 87.696 67.4498ZM90.9414 76.0257C90.7862 75.7929 90.6309 76.0257 90.4778 76.0257C90.633 76.181 90.7862 76.2586 90.9414 76.0257ZM99.6726 42.8777C99.5174 41.5645 100.445 40.7925 100.6 39.7876C100.677 39.71 100.833 39.6324 100.986 39.7876C100.675 40.6373 100.367 41.5645 100.059 42.4141C100.059 42.4917 99.9034 42.5694 99.6726 42.8777ZM101.063 39.2464C100.833 38.7828 101.063 38.552 101.374 38.3191C101.296 38.6296 101.452 39.0156 101.063 39.2464Z" fill="#EEC61D"/>
<path id="Vector_4" d="M141.506 43.3078C140.171 48.8986 138 51.8188 134.495 56.0753C134.161 56.4088 133.744 56.6606 133.41 56.9941C132.659 57.4955 131.908 58.1626 131.239 58.8297C130.238 59.9982 128.986 60.9171 127.817 61.7499C127.316 62.0835 126.982 62.501 126.565 62.8345C124.561 64.1687 122.642 65.589 120.305 66.2561C120.139 66.34 119.971 66.4218 119.806 66.5057C119.388 66.9232 119.89 67.5064 119.388 67.7582C119.554 68.0917 119.806 67.8421 120.055 68.0078C120.722 69.0924 120.806 70.5126 121.306 71.3455C122.726 72.7636 123.726 74.0999 124.561 75.7698C126.229 77.939 127.899 80.276 130.068 82.1116C129.819 83.1123 128.984 83.6976 128.65 84.6164C127.731 84.7003 127.064 84.1989 126.397 83.7815C124.394 82.3633 122.39 81.027 120.972 78.9396C120.638 78.5222 120.221 78.1886 119.887 77.8551C118.218 76.5208 117.217 74.5174 115.883 72.9314C115.048 71.9308 114.546 70.5105 113.963 69.2602C113.713 68.8427 113.63 68.3435 113.128 68.1756C112.795 68.1756 112.795 68.4253 112.711 68.6749C111.041 72.7636 109.373 77.2698 108.788 81.6102C108.704 82.6109 108.288 84.3647 107.118 84.5304C106.451 84.029 105.532 83.6954 104.531 83.6954C103.614 84.1129 103.113 85.0297 102.612 85.8646C102.362 85.6989 102.362 85.615 102.362 85.4471C101.945 85.4471 101.777 85.9485 101.361 85.9485C101.361 85.615 101.028 85.615 100.776 85.615C100.61 85.4471 100.86 85.1975 100.443 85.0297C100.277 85.4471 100.109 85.8646 99.8593 86.2821C99.2761 86.366 98.7747 86.1982 98.1894 86.366C98.0237 86.1164 97.772 85.8646 97.8559 85.615C97.9398 84.3626 97.4384 83.1102 97.9398 81.7759C98.1894 81.0249 98.1894 80.106 98.3573 79.1893C98.4412 78.9397 98.3573 78.6061 98.523 78.4383C99.4419 77.4355 99.1901 76.1013 99.6076 74.9328C99.6915 74.6831 99.6915 74.4314 99.7733 74.2657C100.524 73.4307 100.608 72.3461 100.858 71.2616C101.191 69.6756 102.026 68.2574 102.528 66.6715C103.279 64.5841 104.363 62.6646 105.282 60.6633C105.45 60.3297 105.616 59.9961 105.7 59.6626L106.535 57.6591C106.702 57.3256 106.868 56.992 107.036 56.6585C107.619 55.3221 108.454 54.0718 109.039 52.7355C111.043 48.2294 114.215 43.5554 117.301 39.8002C120.888 36.2108 124.144 32.9571 128.984 31.2054C129.317 31.0375 129.651 30.8718 129.819 30.7879C131.071 30.4543 132.24 30.6201 133.324 30.4543C133.408 30.4543 133.49 30.2886 133.574 30.2047C133.823 30.4543 134.241 30.2886 134.574 30.2886C134.574 30.3725 134.574 30.4543 134.658 30.5383C134.908 30.8718 135.244 31.2054 135.661 31.3732C135.745 31.5389 135.745 31.8725 135.995 31.8725C136.911 32.0382 137.497 32.7913 138.416 32.8732C138.999 34.3752 139.918 35.5437 140.92 36.7122C141.17 37.8807 141.587 39.1331 141.671 40.3834C141.839 41.3002 141.671 42.303 141.506 43.3036V43.3078ZM99.36 83.1144C99.36 83.1144 99.2761 83.0304 99.1943 82.9486C99.1943 83.0325 99.1104 83.1143 99.1104 83.1983C99.2761 83.1983 99.36 83.1983 99.36 83.1144ZM100.946 83.0304C100.696 82.8647 100.279 82.6969 100.279 82.3633C100.113 82.3633 99.8614 82.4472 99.8614 82.7787C100.111 83.0283 100.279 83.5297 100.946 83.0283V83.0304ZM100.279 82.3633C100.363 82.2794 100.529 82.1955 100.445 82.0298C100.279 82.1137 100.279 82.1955 100.279 82.3633ZM106.705 78.6921H106.621L106.705 78.776V78.6921ZM106.954 77.9411V77.8572L106.87 77.9411H106.954ZM107.122 77.0222L107.038 76.9383V77.0222H107.122ZM107.456 75.4363C107.29 75.6859 107.122 75.9376 107.29 76.2712C107.623 76.0216 107.707 75.688 107.456 75.4363ZM108.372 73.1014H108.288L108.372 73.1853V73.1014ZM108.708 72.3482H108.542C108.458 72.3482 108.458 72.4321 108.458 72.4321C108.458 72.4321 108.542 72.5161 108.624 72.5161L108.708 72.3503V72.3482ZM108.708 71.5972C108.542 71.5972 108.542 71.6811 108.624 71.8468C108.79 71.8468 108.874 71.7629 108.708 71.5972ZM110.544 66.7575C110.544 66.6736 110.46 66.6736 110.46 66.5918C110.404 66.6477 110.376 66.7309 110.376 66.8414C110.46 66.8414 110.542 66.7575 110.542 66.7575H110.544ZM113.464 58.9955V58.8297L113.38 58.9955H113.464ZM114.383 56.9941L114.299 56.9102V56.9941H114.383ZM114.966 56.2431C114.882 56.1592 114.8 56.1592 114.716 56.2431C114.632 56.327 114.716 56.4088 114.8 56.4088C114.884 56.4088 114.884 56.3249 114.966 56.2431ZM115.134 55.4082H115.05L115.134 55.4921V55.4082ZM115.383 54.6571C115.383 54.6571 115.299 54.7411 115.218 54.825C115.302 54.825 115.383 54.9089 115.467 54.9089C115.467 54.7431 115.467 54.6592 115.383 54.6592V54.6571ZM115.633 53.4886C115.549 53.4886 115.383 53.4886 115.383 53.5726C115.467 53.6565 115.549 53.5726 115.633 53.4886ZM137.165 39.2191C136.916 38.3003 136.498 37.5492 135.913 36.8821C135.747 36.8821 135.579 36.7982 135.414 36.7982C135.747 38.2164 135.997 39.6366 136.081 41.2226C135.831 41.5561 135.831 42.1393 135.246 42.5568C135.33 40.2198 135.579 37.9667 133.744 36.3807C129.655 37.2996 122.644 46.5637 120.89 49.8174C120.139 51.1516 119.138 52.4041 118.469 53.8222C117.469 55.9095 116.634 57.9948 115.715 60.1661C115.631 60.3318 115.547 60.6654 115.799 60.8332C116.216 60.8332 116.55 60.8332 116.799 60.6675C119.22 59.415 121.641 58.1626 123.726 56.5788C127.064 53.9921 133.24 48.7349 134.409 44.6441C134.574 44.3106 135.076 44.4784 135.244 43.977C135.076 43.7274 134.742 43.4777 135.16 42.9764C135.325 42.8106 135.743 43.226 136.244 42.7267C136.827 41.81 136.911 40.3897 137.161 39.2233L137.165 39.2191ZM115.633 53.4886C115.799 53.4886 115.883 53.6544 116.05 53.4886C115.967 53.1551 115.801 53.3229 115.633 53.4886ZM117.053 50.6503H117.137L117.053 50.5663V50.6503ZM120.559 45.3092H120.643L120.559 45.2252V45.3092ZM123.313 41.8058C123.563 41.8058 123.647 41.64 123.731 41.4722C123.563 41.5561 123.229 41.5561 123.313 41.8058ZM132.659 30.2047H132.493V30.1208L132.659 30.2047ZM135.078 36.5486C135.078 36.7982 135.246 36.7982 135.411 36.7982C135.328 36.6325 135.411 36.3807 135.078 36.5486ZM138.667 47.1469C138.502 47.2308 138.418 47.2308 138.502 47.3965C138.667 47.3965 138.751 47.3126 138.667 47.1469ZM139.001 46.1441H138.917C138.833 46.228 138.917 46.3098 139.001 46.3098H139.085C139.169 46.2259 139.169 46.1441 139.001 46.1441ZM139.502 45.3931C139.502 45.3931 139.586 45.3092 139.586 45.2273C139.42 45.2273 139.42 45.3113 139.336 45.3931H139.502Z" fill="#EEC61D"/>
</g>
<g id="Group_2">
<g id="Group_3">
<path id="Vector_5" d="M40.9247 99.0034V97.879H46.4986V99.1818H42.2023L40.9247 99.0034ZM41.2645 99.4146C41.6946 99.5027 42.4058 99.7712 42.8127 100.027V100.875H45.9784V102.133H42.8127V103.883H46.5889V105.186H41.2645V99.4146Z" fill="#000828"/>
<path id="Vector_6" d="M48.9972 105.121V99.4146C49.4272 99.5027 50.1615 99.7608 50.5454 100.027V103.904C50.8957 103.971 51.4391 103.982 51.9467 103.982C52.5803 103.982 53.1782 103.894 53.4173 103.726C53.7782 103.47 53.9816 102.622 53.9816 101.575C53.9816 99.8489 53.5075 99.1796 51.9363 99.1796H49.9349L48.6573 99.0013V97.8769H51.9363C54.8313 97.8769 55.555 99.1797 55.555 101.609C55.555 103.413 54.9781 104.54 54.4138 104.886C54.053 105.098 53.046 105.31 51.9824 105.31C50.7153 105.31 49.6979 105.221 48.9972 105.121Z" fill="#000828"/>
<path id="Vector_7" d="M57.8815 101.81V97.8769H59.4297V101.81C59.4297 103.482 59.8934 103.971 61.1709 103.971C61.8276 103.971 62.5052 103.816 62.8555 103.604C62.8094 104.038 62.5387 104.863 62.3583 105.119C62.0751 105.23 61.4542 105.307 61.0472 105.307C58.8885 105.307 57.8815 104.483 57.8815 101.808V101.81ZM62.6877 102.87C62.7779 102.48 62.7905 101.89 62.7905 101.288V97.879H64.3513V101.422C64.3513 102.759 64.1016 103.952 63.9212 104.508C63.6842 104.33 62.8576 103.304 62.6898 102.87H62.6877Z" fill="#000828"/>
<path id="Vector_8" d="M66.6547 101.611C66.6547 100.373 66.982 99.0601 67.2882 98.4685C67.6155 98.8251 68.205 99.7167 68.3623 100.161C68.2721 100.474 68.205 101.009 68.205 101.51C68.205 103.516 68.7924 104.028 70.1728 104.028C70.6469 104.028 71.2133 103.94 71.5406 103.728C71.9014 103.493 72.128 102.681 72.128 101.51C72.128 99.5929 71.5636 99.0475 70.1728 99.0475C69.4952 99.0475 68.7253 99.1587 68.2742 99.3139C68.3749 98.8566 68.7043 98.0993 68.9078 97.8538C69.1448 97.8098 69.6882 97.7531 70.1749 97.7531C72.6063 97.7531 73.6804 98.7454 73.6804 101.609C73.6804 103.224 73.0363 104.449 72.5391 104.785C72.1427 105.041 71.2154 105.31 70.177 105.31C67.7456 105.31 66.661 104.185 66.661 101.611H66.6547ZM70.2945 107.248L69.0274 106.958L69.1406 105.922L73.7538 106.39L73.63 107.571L70.2945 107.248Z" fill="#000828"/>
<path id="Vector_9" d="M75.9922 101.81V97.8769H77.5404V101.81C77.5404 103.482 78.004 103.971 79.2816 103.971C79.9382 103.971 80.6158 103.816 80.9662 103.604C80.92 104.038 80.6494 104.863 80.469 105.119C80.1858 105.23 79.5648 105.307 79.1578 105.307C76.9992 105.307 75.9922 104.483 75.9922 101.808V101.81ZM80.7963 102.87C80.8865 102.48 80.899 101.89 80.899 101.288V97.879H82.4598V101.422C82.4598 102.759 82.2102 103.952 82.0298 104.508C81.7927 104.33 80.9662 103.304 80.7983 102.87H80.7963Z" fill="#000828"/>
<path id="Vector_10" d="M84.8094 99.0034V97.879H90.3834V99.1818H86.087L84.8094 99.0034ZM85.1493 99.4146C85.5793 99.5027 86.2905 99.7712 86.6975 100.027V100.875H89.8631V102.133H86.6975V103.883H90.4736V105.186H85.1493V99.4146Z" fill="#000828"/>
<path id="Vector_11" d="M92.8924 99.4377C93.3665 99.5384 94.0336 99.7943 94.4406 100.05V101.622H95.6154C96.1797 101.622 96.8699 101.544 97.0965 101.41C97.3566 101.254 97.5139 100.841 97.5139 100.396C97.5139 99.595 97.1174 99.1818 95.8294 99.1818H93.784L92.4959 99.0034V97.879H95.9678C98.4769 97.879 99.0768 98.8377 99.0768 100.443C99.0768 100.91 98.8964 101.489 98.6803 101.88L97.0189 102.815C96.6224 102.849 96.1378 102.872 95.7077 102.872H94.4406V105.19H92.8924V99.4398V99.4377ZM97.0524 103.973C97.1762 103.528 97.7426 102.947 98.1727 102.614L99.3034 105.188L97.5853 105.389L97.0545 103.973H97.0524Z" fill="#000828"/>
</g>
<g id="Group_4">
<path id="Vector_12" d="M32.5039 116.749C32.5039 116.749 32.5501 116.571 32.5501 116.46C32.5501 116.17 32.4935 116.015 31.4529 115.746L30.039 115.39C28.818 115.09 28.3775 114.653 28.3775 113.462C28.3775 112.526 28.818 111.981 29.1474 111.8C29.3614 112.023 29.825 112.78 29.9719 113.103C29.9488 113.147 29.9257 113.292 29.9257 113.338C29.9257 113.661 29.9928 113.795 30.8068 114.007L32.0277 114.307C33.6326 114.72 34.0962 115.142 34.0962 116.292C34.0962 117.362 33.6221 117.853 33.2718 118.108C33.0011 117.808 32.6277 117.095 32.5039 116.749ZM28.4908 118.442V117.227C28.9439 117.328 30.0516 117.45 30.7522 117.45C31.4529 117.45 32.12 117.36 32.527 117.181C32.4368 117.561 32.1767 118.308 31.9837 118.564C31.7466 118.631 31.1131 118.698 30.6264 118.698C29.9026 118.698 28.8957 118.587 28.4887 118.442H28.4908ZM30.5257 111.267C30.7753 111.211 31.3396 111.146 31.8033 111.146C32.4809 111.146 33.3074 111.236 33.7018 111.324V112.549C33.2046 112.472 32.3005 112.394 31.8033 112.394C30.9893 112.394 30.3788 112.495 29.9719 112.662C30.039 112.306 30.3222 111.515 30.5257 111.27V111.267Z" fill="#000828"/>
<path id="Vector_13" d="M36.1332 112.392V111.267H41.7072V112.57H37.4108L36.1332 112.392ZM36.4731 112.805C36.9031 112.893 37.6143 113.162 38.0213 113.418V114.265H41.1869V115.524H38.0213V117.274H41.7974V118.576H36.4731V112.805Z" fill="#000828"/>
<path id="Vector_14" d="M44.0463 111.335H45.9113L50.8181 118.578H48.9867L44.0463 111.335ZM44.1365 113.162C44.5435 113.397 45.3805 114.299 45.6406 114.8V118.578H44.1365V113.164V113.162ZM49.2699 115.155V111.265H50.7971V116.793C50.3671 116.558 49.53 115.646 49.2699 115.155Z" fill="#000828"/>
<path id="Vector_15" d="M57.2962 116.749C57.2962 116.749 57.3424 116.571 57.3424 116.46C57.3424 116.17 57.2857 116.015 56.2452 115.746L54.8313 115.39C53.6103 115.09 53.1698 114.653 53.1698 113.462C53.1698 112.526 53.6103 111.981 53.9376 111.8C54.1516 112.023 54.6152 112.78 54.762 113.103C54.739 113.147 54.7159 113.292 54.7159 113.338C54.7159 113.661 54.783 113.795 55.597 114.007L56.8179 114.307C58.4228 114.72 58.8864 115.142 58.8864 116.292C58.8864 117.362 58.4123 117.853 58.0619 118.108C57.7913 117.808 57.4179 117.095 57.2941 116.749H57.2962ZM53.2831 118.442V117.227C53.7362 117.328 54.8439 117.45 55.5445 117.45C56.2452 117.45 56.9123 117.36 57.3193 117.181C57.2291 117.561 56.969 118.308 56.776 118.564C56.5389 118.631 55.9054 118.698 55.4187 118.698C54.6949 118.698 53.6879 118.587 53.281 118.442H53.2831ZM55.318 111.267C55.5676 111.211 56.1319 111.146 56.5956 111.146C57.2732 111.146 58.0997 111.236 58.4941 111.324V112.549C57.9969 112.472 57.0927 112.394 56.5956 112.394C55.7816 112.394 55.1711 112.495 54.7641 112.662C54.8313 112.306 55.1145 111.515 55.318 111.27V111.267Z" fill="#000828"/>
<path id="Vector_16" d="M61.1835 111.267H62.7317V118.576H61.1835V111.267Z" fill="#000828"/>
<path id="Vector_17" d="M65.5135 118.509V112.759C65.9876 112.86 66.768 113.16 67.0617 113.382V114.395H68.7567C69.6273 114.395 70.0112 114.095 70.0112 113.447C70.0112 112.799 69.7616 112.501 68.9141 112.501H66.4491L65.1715 112.39V111.265H69.0504C70.8252 111.265 71.5154 111.935 71.5154 113.294C71.5154 113.886 71.3119 114.475 71.1546 114.697L69.4364 115.522H67.0617V117.326C67.368 117.37 68.0351 117.427 68.5658 117.427C69.0966 117.427 69.7532 117.37 69.9336 117.271C70.1371 117.15 70.2945 116.76 70.2945 116.292C70.2945 115.979 70.2378 115.646 70.114 115.377C70.4539 115.377 71.335 115.555 71.5951 115.644C71.7315 115.855 71.7986 116.256 71.7986 116.546C71.7986 117.471 71.3455 118.205 70.9616 118.396C70.5882 118.574 69.6378 118.696 68.4966 118.696C67.433 118.696 66.0086 118.595 65.5114 118.507L65.5135 118.509Z" fill="#000828"/>
<path id="Vector_18" d="M74.1398 111.267H75.688V118.576H74.1398V111.267Z" fill="#000828"/>
<path id="Vector_19" d="M78.153 117.385L79.7704 117.206H83.5465V118.576H78.153V117.385ZM78.4907 111.267H80.0389V116.281C79.6424 116.571 78.9984 116.871 78.4907 116.984V111.267Z" fill="#000828"/>
<path id="Vector_20" d="M85.6129 111.267H87.1611V118.576H85.6129V111.267Z" fill="#000828"/>
<path id="Vector_21" d="M93.6749 116.749C93.6749 116.749 93.721 116.571 93.721 116.46C93.721 116.17 93.6644 116.015 92.6239 115.746L91.2099 115.39C89.989 115.09 89.5484 114.653 89.5484 113.462C89.5484 112.526 89.989 111.981 90.3162 111.8C90.5302 112.023 90.9939 112.78 91.1407 113.103C91.1176 113.147 91.0945 113.292 91.0945 113.338C91.0945 113.661 91.1617 113.795 91.9756 114.007L93.1966 114.307C94.8014 114.72 95.2651 115.142 95.2651 116.292C95.2651 117.362 94.7909 117.853 94.4406 118.108C94.17 117.808 93.7966 117.095 93.6728 116.749H93.6749ZM89.6617 118.442V117.227C90.1149 117.328 91.2225 117.45 91.9232 117.45C92.6239 117.45 93.291 117.36 93.698 117.181C93.6078 117.561 93.3476 118.308 93.1546 118.564C92.9176 118.631 92.284 118.698 91.7973 118.698C91.0736 118.698 90.0666 118.587 89.6596 118.442H89.6617ZM91.6966 111.267C91.9463 111.211 92.5106 111.146 92.9742 111.146C93.6518 111.146 94.4784 111.236 94.8728 111.324V112.549C94.3756 112.472 93.4714 112.394 92.9742 112.394C92.1603 112.394 91.5498 112.495 91.1428 112.662C91.2099 112.306 91.4931 111.515 91.6966 111.27V111.267Z" fill="#000828"/>
<path id="Vector_22" d="M97.3021 112.392V111.267H102.876V112.57H98.5796L97.3021 112.392ZM97.6419 112.805C98.072 112.893 98.7831 113.162 99.1901 113.418V114.265H102.356V115.524H99.1901V117.274H102.966V118.576H97.6419V112.805Z" fill="#000828"/>
<path id="Vector_23" d="M105.385 112.826C105.859 112.927 106.526 113.183 106.933 113.439V115.01H108.108C108.672 115.01 109.363 114.932 109.589 114.798C109.849 114.643 110.007 114.23 110.007 113.785C110.007 112.983 109.61 112.57 108.322 112.57H106.277L104.989 112.392V111.267H108.46C110.969 111.267 111.569 112.226 111.569 113.831C111.569 114.299 111.389 114.878 111.173 115.268L109.511 116.204C109.115 116.237 108.63 116.26 108.2 116.26H106.933V118.578H105.385V112.828V112.826ZM109.547 117.362C109.671 116.917 110.237 116.336 110.667 116.002L111.798 118.576L110.08 118.778L109.549 117.362H109.547Z" fill="#000828"/>
</g>
<g id="Group_5">
<path id="Vector_24" d="M38.5289 127.761C38.9254 127.381 39.58 127.104 40.1464 127.081L39.3891 130.224H41.7974L41.1408 127.805L39.8401 126.066L40.9373 125.375L42.5086 127.102L44.126 132.919H42.5316L42.1477 131.493H39.1059L38.745 132.919H37.1737L38.531 127.761H38.5289Z" fill="#000828"/>
<path id="Vector_25" d="M45.9448 129.544V125.61H47.493V129.544C47.493 131.216 47.9566 131.705 49.2342 131.705C49.8909 131.705 50.5685 131.549 50.9188 131.337C50.8726 131.772 50.602 132.596 50.4216 132.852C50.1384 132.963 49.5174 133.041 49.1105 133.041C46.9518 133.041 45.9448 132.216 45.9448 129.542V129.544ZM50.7489 130.603C50.8391 130.213 50.8517 129.624 50.8517 129.021V125.612H52.4125V129.156C52.4125 130.492 52.1628 131.686 51.9824 132.242C51.7453 132.063 50.9188 131.037 50.751 130.603H50.7489Z" fill="#000828"/>
<path id="Vector_26" d="M58.6493 132.854V127.148C59.0794 127.236 59.8136 127.494 60.1975 127.761V131.637C60.5479 131.705 61.0912 131.715 61.5989 131.715C62.2325 131.715 62.8303 131.627 63.0695 131.459C63.4303 131.203 63.6338 130.356 63.6338 129.309C63.6338 127.582 63.1597 126.913 61.5884 126.913H59.5871L58.3095 126.735V125.61H61.5884C64.4834 125.61 65.2072 126.913 65.2072 129.342C65.2072 131.147 64.6303 132.273 64.066 132.619C63.7051 132.831 62.6982 133.043 61.6346 133.043C60.3675 133.043 59.35 132.955 58.6493 132.854Z" fill="#000828"/>
<path id="Vector_27" d="M67.3554 126.737V125.612H72.9293V126.915H68.633L67.3554 126.737ZM67.6952 127.148C68.1253 127.236 68.8365 127.505 69.2434 127.761V128.608H72.4091V129.867H69.2434V131.616H73.0196V132.919H67.6952V127.148Z" fill="#000828"/>
<path id="Vector_28" d="M79.1578 131.094C79.1578 131.094 79.204 130.916 79.204 130.805C79.204 130.515 79.1473 130.36 78.1068 130.091L76.6929 129.735C75.4719 129.435 75.0314 129 75.0314 127.807C75.0314 126.871 75.4719 126.326 75.7992 126.147C76.0132 126.37 76.4768 127.127 76.6236 127.45C76.6006 127.494 76.5775 127.639 76.5775 127.685C76.5775 128.008 76.6446 128.142 77.4586 128.354L78.6795 128.654C80.2844 129.068 80.748 129.489 80.748 130.639C80.748 131.709 80.2739 132.2 79.9235 132.456C79.6529 132.156 79.2795 131.442 79.1557 131.096L79.1578 131.094ZM75.1447 132.787V131.572C75.5978 131.673 76.7055 131.795 77.4061 131.795C78.1068 131.795 78.7739 131.705 79.1809 131.526C79.0907 131.906 78.8306 132.653 78.6376 132.909C78.4005 132.976 77.767 133.043 77.2803 133.043C76.5565 133.043 75.5495 132.932 75.1426 132.787H75.1447ZM77.1796 125.61C77.4292 125.554 77.9935 125.489 78.4572 125.489C79.1348 125.489 79.9613 125.579 80.3557 125.667V126.892C79.8585 126.815 78.9543 126.737 78.4572 126.737C77.6432 126.737 77.0327 126.838 76.6257 127.005C76.6929 126.649 76.9761 125.858 77.1796 125.612V125.61Z" fill="#000828"/>
<path id="Vector_29" d="M83.0451 125.61H84.5933V132.919H83.0451V125.61Z" fill="#000828"/>
<path id="Vector_30" d="M86.9807 129.399C86.9807 128.128 87.3982 126.882 87.7149 126.313C88.0758 126.68 88.6086 127.471 88.7995 127.918C88.6757 128.218 88.5625 128.81 88.5625 129.3C88.552 130.828 89.1163 131.663 90.7673 131.663C90.9939 131.663 91.2414 131.629 91.4806 131.619V129.101H93.0413V131.342L92.884 132.789C92.5442 132.89 91.3799 133.045 90.5554 133.045C87.8534 133.045 86.9828 131.53 86.9828 129.401L86.9807 129.399ZM89.3324 125.633C89.6386 125.556 90.2932 125.489 90.8806 125.489C91.5708 125.489 92.4288 125.579 92.8022 125.657V126.972C92.2589 126.905 91.3778 126.838 90.7568 126.838C89.9533 126.838 89.1058 126.959 88.7219 127.094C88.8226 126.649 89.1058 125.936 89.3324 125.633Z" fill="#000828"/>
<path id="Vector_31" d="M95.4014 125.677H97.2664L102.173 132.921H100.342L95.4014 125.677ZM95.4916 127.505C95.8986 127.74 96.7356 128.642 96.9958 129.143V132.921H95.4916V127.507V127.505ZM100.625 129.5V125.61H102.152V131.136C101.722 130.901 100.885 129.989 100.625 129.498V129.5Z" fill="#000828"/>
</g>
</g>
<g id="Group_6">
<path id="Vector_32" d="M53.7026 17.9743L54.3257 16.0695H53.2579V14.8905H54.7033L55.0557 13.8143H53.8453V12.6353H55.4313L56.0543 10.7305H57.7578L57.1347 12.6353H58.6976L59.3206 10.7305H61.0115L60.3884 12.6353H61.4688V13.8143H60.0129L59.6605 14.8905H60.8814V16.0695H59.285L58.6619 17.9743H56.9711L57.5941 16.0695H56.0312L55.4082 17.9743H53.7047H53.7026ZM56.4047 14.8905H57.9675L58.32 13.8143H56.7571L56.4047 14.8905Z" fill="#000828"/>
<path id="Vector_33" d="M61.5716 17.9743L64.9429 10.7305H67.2568L70.5798 17.9743H68.3959L67.6449 16.2247H64.4394L63.6758 17.9743H61.5737H61.5716ZM65.0499 14.8066H67.047L66.061 12.4885L65.052 14.8066H65.0499Z" fill="#000828"/>
<path id="Vector_34" d="M71.0266 17.9743V10.7305H73.0468V17.9743H71.0266Z" fill="#000828"/>
<path id="Vector_35" d="M74.2573 17.9743V10.7305H78.5914C78.99 10.7305 79.3634 10.7892 79.7075 10.9067C80.0515 11.0242 80.3473 11.1878 80.5949 11.3976C80.8424 11.6074 81.0354 11.857 81.176 12.1423C81.3165 12.4276 81.3878 12.7402 81.3878 13.078C81.3878 13.4157 81.3165 13.7052 81.176 13.9884C81.0354 14.2716 80.8382 14.515 80.5886 14.7185C80.3389 14.922 80.0431 15.0835 79.7012 15.1989C79.3613 15.3163 78.99 15.3751 78.5914 15.3751H76.2775V17.9722H74.2573V17.9743ZM78.3565 12.2514H76.2775V13.9066H78.3565C78.646 13.9066 78.883 13.8311 79.0676 13.68C79.2522 13.529 79.3445 13.3318 79.3445 13.0905C79.3445 12.8493 79.2522 12.6395 79.0676 12.4843C78.883 12.329 78.646 12.2514 78.3565 12.2514Z" fill="#000828"/>
<path id="Vector_36" d="M82.2668 17.9743V10.7305H85.6024C86.2045 10.7305 86.773 10.8249 87.3059 11.0158C87.8387 11.2067 88.2981 11.4626 88.6862 11.7857C89.0743 12.1108 89.3806 12.4948 89.6093 12.9395C89.8358 13.3842 89.9491 13.8625 89.9491 14.3723C89.9491 14.8821 89.8358 15.3373 89.6093 15.78C89.3827 16.2226 89.0743 16.6044 88.6862 16.9296C88.2981 17.2548 87.8387 17.5086 87.3059 17.6953C86.773 17.882 86.2066 17.9743 85.6024 17.9743H82.2668ZM85.5562 12.3038H84.2871V16.4009H85.5562C85.8772 16.4009 86.1793 16.3485 86.4604 16.2457C86.7415 16.1429 86.987 16.0002 87.1947 15.8156C87.4024 15.6331 87.5639 15.417 87.6814 15.1695C87.7988 14.922 87.8576 14.6555 87.8576 14.3723C87.8576 14.0891 87.7988 13.8122 87.6814 13.5605C87.5639 13.3087 87.4024 13.0905 87.1947 12.9038C86.987 12.7171 86.7415 12.5703 86.4604 12.4633C86.1793 12.3563 85.8772 12.3038 85.5562 12.3038Z" fill="#000828"/>
<path id="Vector_37" d="M89.6303 17.9743L93.0015 10.7305H95.3154L98.6384 17.9743H96.4545L95.7035 16.2247H92.498L91.7344 17.9743H89.6324H89.6303ZM93.1085 14.8066H95.1056L94.1196 12.4885L93.1106 14.8066H93.1085Z" fill="#000828"/>
</g>
</g>
</svg>
