<svg width="40" height="39" viewBox="0 0 40 39" fill="none" xmlns="http://www.w3.org/2000/svg">
<g id="Mode_Isolation" clip-path="url(#clip0_422_95)">
<path id="Vector" d="M16.3468 21.5163H12.7142C12.9525 17.6865 12.8293 8.90898 9.78838 6.06534C9.0487 5.37498 8.19397 5.12842 7.08446 5.30101C5.89276 5.48182 5.0709 6.07356 4.50381 7.15842C2.16151 11.6293 4.96405 21.7629 6.20506 24.7216H2.34231C0.788996 20.2178 -1.44647 10.6924 1.29033 5.4736C2.39163 3.36963 4.20794 2.07109 6.53381 1.71769C8.7364 1.38073 10.7171 1.97247 12.2622 3.41895C16.7578 7.61866 16.5359 18.2042 16.3468 21.5163Z" fill="#AEC1FF"/>
<path id="Vector_2" d="M5.16951 21.7711L1.73413 20.6123C3.25457 16.0756 8.76105 8.12821 19.7329 7.13376L20.0616 10.7499C8.6542 11.7855 5.30923 21.3602 5.16951 21.7711Z" fill="#AEC1FF"/>
<g id="Group">
<path id="Vector_3" d="M17.5385 23.3326L13.7004 38.9151H17.4399L21.278 23.3326H17.5385Z" fill="#AEC1FF"/>
<path id="Vector_4" d="M10.1911 37.8549C9.45961 37.8549 8.75281 37.7563 8.07888 37.5755C5.08731 36.7701 3.25456 34.3784 3.53399 31.6252C3.69014 30.0308 4.40516 28.7158 5.59686 27.8282C8.58844 25.5927 13.8073 26.5708 16.9303 27.1543C17.481 27.2611 17.9577 27.3515 18.2617 27.3844L19.3137 31.165C17.1522 35.9153 13.4785 37.8385 10.1911 37.8385V37.8549ZM10.791 30.0637C9.55002 30.0637 8.4405 30.2363 7.76658 30.7376C7.5118 30.9266 7.21593 31.2389 7.13374 31.995C7.01868 33.1292 8.02957 33.8114 9.01581 34.0826C11.0458 34.625 13.7415 33.7292 15.5332 30.5979C14.2018 30.3595 12.3854 30.0637 10.7828 30.0637H10.791Z" fill="#AEC1FF"/>
</g>
<path id="Vector_5" d="M38.1837 27.6557C38.2412 26.3242 38.1179 24.9599 37.8056 23.6285C36.9427 19.9466 33.5566 17.7604 29.5706 18.3275C26.9242 18.7056 24.1874 20.3904 23.1108 23.3409H27.3022C28.0255 22.5437 29.0446 22.067 30.0801 21.9191C31.691 21.6889 33.7456 22.2231 34.2799 24.4586C34.4935 25.3544 34.5839 26.2256 34.5757 27.0639C29.6281 26.5297 25.7571 27.3516 23.5628 29.5048C22.1327 30.902 21.5821 32.7183 22.0588 34.4935C22.5848 36.4742 24.3189 38.0358 26.6941 38.6604C27.3516 38.833 28.0173 38.9234 28.6748 38.9234C30.7705 38.9234 32.8169 38.0604 34.5018 36.4249C35.9318 35.036 36.9756 33.2361 37.5837 31.239C38.3481 31.4116 39.1535 31.617 40 31.8554V28.0912C39.3836 27.9269 38.7837 27.7871 38.1919 27.6557H38.1837ZM31.9622 33.8196C31.0499 34.7072 29.5541 35.6688 27.6146 35.151C26.5297 34.8634 25.7407 34.2552 25.5599 33.5648C25.3955 32.9484 25.7654 32.4224 26.1023 32.0937C27.0228 31.1897 28.8802 30.5157 31.765 30.5157C32.4389 30.5157 33.1621 30.5486 33.9511 30.6308C33.4744 31.954 32.7594 33.0471 31.9704 33.8196H31.9622Z" fill="#AEC1FF"/>
<g id="Group_2">
<path id="Vector_6" d="M32.2663 3.55867C29.1103 3.4354 25.1982 4.66819 22.0587 9.95276C21.7957 8.81037 21.73 7.24061 22.0587 5.09556C22.0752 4.98871 22.0916 4.90653 22.0998 4.84078H18.4343C17.8508 8.88434 18.4097 12.0156 20.0698 14.1771C19.5027 15.6894 18.985 17.3906 18.5247 19.3302L17.9823 21.5163H21.7218L22.0505 20.1849C22.3299 18.9686 22.6751 17.7193 23.0943 16.4866C24.2367 16.955 25.5516 17.1934 27.0392 17.2016H27.0885C30.9759 17.2016 33.4908 15.8126 34.9209 14.6374C36.8194 13.084 37.9289 11.013 37.97 8.95009C38.0193 6.37766 36.2769 3.71483 32.2663 3.56689V3.55867ZM27.0885 13.5689H27.0557C26.0283 13.5689 25.1736 13.4128 24.4668 13.1169C26.168 9.67332 28.6172 7.05159 32.1348 7.17486C33.6223 7.2324 34.3702 7.79948 34.3456 8.8679C34.3045 10.8404 31.7649 13.5689 27.0885 13.5689Z" fill="#AEC1FF"/>
<path id="Vector_7" d="M20.2589 3.63263C21.262 3.63263 22.0752 2.81944 22.0752 1.81631C22.0752 0.813191 21.262 0 20.2589 0C19.2558 0 18.4426 0.813191 18.4426 1.81631C18.4426 2.81944 19.2558 3.63263 20.2589 3.63263Z" fill="#AEC1FF"/>
</g>
</g>
<defs>
<clipPath id="clip0_422_95">
<rect width="40" height="38.9151" fill="white"/>
</clipPath>
</defs>
</svg>
