<svg width="160" height="77" viewBox="0 0 160 77" fill="none" xmlns="http://www.w3.org/2000/svg">
<path id="Vector 4" d="M8.18712 56.35C8.97664 52.7581 16.749 12.3809 21.6976 3.61014C26.464 -4.83761 28.1059 22.2374 28.3715 31.9334C28.655 42.2812 27.4743 51.5038 23.4882 61.0705C18.2776 73.5759 -1.85505 47.0405 2.6527 38.5259C8.47282 27.5323 16.9507 22.3366 23.9765 35.3517C28.7887 44.266 31.7618 54.5694 33.5804 64.4888C34.5155 69.5894 33.6179 76.3823 36.1848 67.5816C38.8781 58.3473 45.2971 41.7 57.1831 41.7C70.2828 41.7 68.1145 74.1501 76.228 74.7438C82.3998 75.1954 93.1574 64.9657 97.9588 62.1286C111.6 54.0676 125.919 47.6215 141.42 44.1417C146.815 42.9307 152.124 43.165 157.617 43.165" stroke="#AEC1FF" stroke-width="3" stroke-linecap="round"/>
</svg>
